<?xml version="1.0" encoding="UTF-8"?>
<svg width="16px" height="12px" viewBox="0 0 16 12" version="1.1" xmlns="http://www.w3.org/2000/svg" xmlns:xlink="http://www.w3.org/1999/xlink">
    <!-- Generator: Sketch 59 (86127) - https://sketch.com -->
    <title>crunchbasecb</title>
    <desc>Created with Sketch.</desc>
    <g id="Page-1" stroke="none" stroke-width="1" fill="none" fill-rule="evenodd">
        <g id="crunchbase" fill="#FFFFFF" fill-rule="nonzero">
            <path d="M5.84,8.42 L7.5,8.42 C7.05716581,10.2342314 5.32872211,11.4316075 3.47459078,11.2085945 C1.62045946,10.9855815 0.225244081,9.41249505 0.225244081,7.545 C0.225244081,5.67750495 1.62045946,4.10441847 3.47459078,3.8814055 C5.32872211,3.65839253 7.05716581,4.85576858 7.5,6.67 L5.84,6.67 C5.45153628,5.81754872 4.54753799,5.32329171 3.62024612,5.45635953 C2.69295426,5.58942735 1.96442735,6.31795426 1.83135953,7.24524612 C1.69829171,8.17253799 2.19254872,9.07653628 3.045,9.465 C4.10538709,9.94823854 5.3567436,9.48037895 5.84,8.42 Z M9.93,0.37 L9.93,4.48 C10.4654791,4.11798493 11.0856406,3.90092842 11.73,3.85 L12,3.85 C13.5378486,3.84760172 14.9141025,4.80426087 15.447711,6.24656667 C15.9813195,7.68887248 15.5591035,9.31090983 14.39,10.31 C14.0761228,10.5802268 13.7173788,10.7934425 13.33,10.94 C12.205983,11.3763436 10.9395112,11.2343792 9.94,10.56 L9.94,10.94 L8.43,10.94 L8.43,0.37 L9.93,0.37 Z M12.0635,5.48586665 C10.9193662,5.48586665 9.98494182,6.40013807 9.96,7.544 C9.94337502,8.30644152 10.3406241,9.01819015 10.9982863,9.40429101 C11.6559485,9.79039187 12.4710515,9.79039187 13.1287137,9.40429101 C13.7863759,9.01819015 14.183625,8.30644152 14.167,7.544 C14.1420582,6.40013807 13.2076338,5.48586665 12.0635,5.48586665 Z" id="Shape"></path>
        </g>
    </g>
</svg>