<svg width="27" height="25" viewBox="0 0 27 25" fill="none" xmlns="http://www.w3.org/2000/svg">
<path d="M6.25326 3.66666C6.2529 4.3739 5.97161 5.05204 5.47126 5.55189C4.97092 6.05173 4.2925 6.33235 3.58526 6.33199C2.87801 6.33164 2.19987 6.05035 1.70003 5.55C1.20018 5.04965 0.919569 4.37124 0.919922 3.66399C0.920276 2.95675 1.20157 2.27861 1.70191 1.77876C2.20226 1.27892 2.88068 0.998304 3.58792 0.998658C4.29517 0.999011 4.9733 1.2803 5.47315 1.78065C5.973 2.281 6.25361 2.95941 6.25326 3.66666ZM6.33326 8.30666H0.999922V25H6.33326V8.30666ZM14.7599 8.30666H9.45326V25H14.7066V16.24C14.7066 11.36 21.0666 10.9067 21.0666 16.24V25H26.3333V14.4267C26.3333 6.19999 16.9199 6.50666 14.7066 10.5467L14.7599 8.30666Z" fill="white"/>
</svg>
