<svg xmlns="http://www.w3.org/2000/svg" viewBox="0 0 576.99 77.66"><defs><style>.cls-1{fill:#fff;}.cls-2{fill:#e47513;}</style></defs><title>Asset 6</title><g id="Layer_2" data-name="Layer 2"><g id="Layer_1-2" data-name="Layer 1"><path class="cls-1" d="M67.17,18.84,52.29,33.72a14.22,14.22,0,0,1,.94,5.11,14.42,14.42,0,0,1-14.4,14.4,14.22,14.22,0,0,1-5.11-.94L18.83,67.18A34.68,34.68,0,0,0,67.17,18.84Z"/><path class="cls-2" d="M24.43,38.83A14.42,14.42,0,0,1,43.94,25.37L58.82,10.49A34.69,34.69,0,0,0,10.48,58.83L25.37,43.94A14.22,14.22,0,0,1,24.43,38.83Z"/><path class="cls-2" d="M18.83,67.18,8.35,77.66,0,69.31,10.48,58.83A35.21,35.21,0,0,0,18.83,67.18Z"/><path class="cls-1" d="M77.66,8.35,67.17,18.84a34.85,34.85,0,0,0-8.35-8.35L69.31,0Z"/><path class="cls-2" d="M133.34,53.27l25.13-29.82H134.25V13.79H171.7v9.66L147.06,53.27h25.48V63.35h-39.2Z"/><path class="cls-2" d="M180.44,13.79h33.67V23.87H191.36v9.24h21.5V43.19h-21.5V53.27h24V63.35H180.44Z"/><path class="cls-2" d="M224.12,13.79H243.3a33.86,33.86,0,0,1,7.18.74,16.9,16.9,0,0,1,6,2.45,12.16,12.16,0,0,1,4.06,4.62,15.66,15.66,0,0,1,1.5,7.24,14.56,14.56,0,0,1-2.73,8.93,12.27,12.27,0,0,1-8,4.65l12.6,20.93H250.79L240.43,43.54H235V63.35H224.12ZM235,34.3h6.44c1,0,2,0,3.12-.1a9.66,9.66,0,0,0,3-.63,5.11,5.11,0,0,0,2.21-1.65,5,5,0,0,0,.87-3.15,5.19,5.19,0,0,0-.77-3,5,5,0,0,0-2-1.71,8.56,8.56,0,0,0-2.73-.81,22.19,22.19,0,0,0-3-.21H235Z"/><path class="cls-2" d="M266.82,38.57a28,28,0,0,1,2-10.78,23.58,23.58,0,0,1,5.56-8.22,24.59,24.59,0,0,1,8.47-5.22,32.42,32.42,0,0,1,21.42,0,24.5,24.5,0,0,1,8.47,5.22,23.6,23.6,0,0,1,5.57,8.22,28,28,0,0,1,2,10.78,28,28,0,0,1-2,10.78,23.74,23.74,0,0,1-5.57,8.23,24.47,24.47,0,0,1-8.47,5.21,32.42,32.42,0,0,1-21.42,0,24.57,24.57,0,0,1-8.47-5.21,23.71,23.71,0,0,1-5.56-8.23A28,28,0,0,1,266.82,38.57Zm11.34,0A18,18,0,0,0,279.25,45a14.79,14.79,0,0,0,3.11,5,14.29,14.29,0,0,0,4.87,3.32,17.46,17.46,0,0,0,12.67,0A14.15,14.15,0,0,0,304.76,50a14.66,14.66,0,0,0,3.12-5,19.44,19.44,0,0,0,0-12.78,14.42,14.42,0,0,0-3.12-5.07,14.18,14.18,0,0,0-4.86-3.33,17.46,17.46,0,0,0-12.67,0,14.31,14.31,0,0,0-4.87,3.33,14.54,14.54,0,0,0-3.11,5.07A18.13,18.13,0,0,0,278.16,38.57Z"/><path class="cls-1" d="M372.59,59.85a39.28,39.28,0,0,1-10.08,3.64,51,51,0,0,1-10.71,1.12,30.41,30.41,0,0,1-10.71-1.82,24.57,24.57,0,0,1-8.47-5.21,23.71,23.71,0,0,1-5.56-8.23,28,28,0,0,1-2-10.78,28,28,0,0,1,2-10.78,23.58,23.58,0,0,1,5.56-8.22,24.59,24.59,0,0,1,8.47-5.22,30.64,30.64,0,0,1,10.71-1.82,39.55,39.55,0,0,1,11,1.44,21.43,21.43,0,0,1,8.78,4.93l-7.7,8.4a15.37,15.37,0,0,0-5-3.5,18,18,0,0,0-7-1.19,16.27,16.27,0,0,0-6.33,1.19,14.31,14.31,0,0,0-4.87,3.33,14.54,14.54,0,0,0-3.11,5.07,18.13,18.13,0,0,0-1.09,6.37A18,18,0,0,0,337.49,45a14.79,14.79,0,0,0,3.11,5,14.29,14.29,0,0,0,4.87,3.32,16.09,16.09,0,0,0,6.33,1.19,21.07,21.07,0,0,0,6.16-.8,23.15,23.15,0,0,0,4.13-1.65V44H353.2V34h19.39Z"/><path class="cls-1" d="M424,44.24a23.81,23.81,0,0,1-1.33,8.12,17.71,17.71,0,0,1-3.95,6.44,18,18,0,0,1-6.55,4.27,24.48,24.48,0,0,1-9,1.54,24.75,24.75,0,0,1-9.1-1.54,17.57,17.57,0,0,1-10.5-10.71,24.05,24.05,0,0,1-1.33-8.12V13.79H393.1v30a12,12,0,0,0,.74,4.27,10.32,10.32,0,0,0,2.06,3.4,9.54,9.54,0,0,0,3.19,2.24,10.09,10.09,0,0,0,4,.8,9.84,9.84,0,0,0,4-.8,9.47,9.47,0,0,0,3.15-2.24,10.18,10.18,0,0,0,2.07-3.4,12,12,0,0,0,.73-4.27v-30H424Z"/><path class="cls-1" d="M450.36,13.79h9L481,63.35H468.63l-4.27-10.5H445.11L441,63.35h-12Zm4.2,14.42-6,15.4h12.11Z"/><path class="cls-1" d="M485.92,13.79H505.1a33.93,33.93,0,0,1,7.18.74,17,17,0,0,1,6,2.45,12.24,12.24,0,0,1,4.06,4.62,15.66,15.66,0,0,1,1.5,7.24,14.56,14.56,0,0,1-2.73,8.93,12.27,12.27,0,0,1-8,4.65l12.6,20.93H512.59L502.23,43.54h-5.39V63.35H485.92ZM496.84,34.3h6.44c1,0,2,0,3.12-.1a9.72,9.72,0,0,0,3-.63,5.16,5.16,0,0,0,2.21-1.65,5,5,0,0,0,.87-3.15,5.19,5.19,0,0,0-.77-3,5,5,0,0,0-2-1.71,8.56,8.56,0,0,0-2.73-.81,22.19,22.19,0,0,0-3-.21h-7.14Z"/><path class="cls-1" d="M531.28,13.79h16.38A47.11,47.11,0,0,1,559,15.12a25.8,25.8,0,0,1,9.34,4.31,21.15,21.15,0,0,1,6.34,7.73A26,26,0,0,1,577,38.71a23.67,23.67,0,0,1-2.27,10.61,22.91,22.91,0,0,1-6.13,7.7,27.06,27.06,0,0,1-8.89,4.72,34.31,34.31,0,0,1-10.57,1.61H531.28ZM542.2,53.27h5.67a30.2,30.2,0,0,0,7-.77A14.9,14.9,0,0,0,560.54,50a12.28,12.28,0,0,0,3.75-4.69,16.67,16.67,0,0,0,1.36-7.11,13.83,13.83,0,0,0-1.36-6.33,12.7,12.7,0,0,0-3.68-4.45,16.17,16.17,0,0,0-5.42-2.62,23.87,23.87,0,0,0-6.55-.88H542.2Z"/></g></g></svg>