<svg width="28" height="24" viewBox="0 0 28 24" fill="none" xmlns="http://www.w3.org/2000/svg">
<path d="M27.5484 3.5413C26.5305 3.99155 25.451 4.28726 24.3458 4.41863C25.5108 3.72187 26.3827 2.62532 26.7991 1.3333C25.7058 1.98396 24.5071 2.43996 23.2578 2.68663C22.4186 1.78874 21.3062 1.19325 20.0937 0.992743C18.8812 0.792238 17.6363 0.997951 16.5528 1.5779C15.4692 2.15785 14.6076 3.07954 14.1019 4.19969C13.5962 5.31983 13.4748 6.57567 13.7564 7.77196C11.5392 7.66084 9.3702 7.08466 7.39014 6.08085C5.41008 5.07704 3.66326 3.66803 2.26309 1.9453C1.76748 2.79656 1.50703 3.76427 1.50843 4.7493C1.50843 6.68263 2.49243 8.39063 3.98843 9.39063C3.10311 9.36276 2.23727 9.12367 1.46309 8.6933V8.76263C1.46336 10.0502 1.90892 11.2981 2.72422 12.2947C3.53953 13.2913 4.6744 13.9753 5.93643 14.2306C5.11458 14.4533 4.25284 14.4862 3.41643 14.3266C3.77225 15.4349 4.46577 16.4042 5.39988 17.0988C6.334 17.7933 7.46193 18.1784 8.62576 18.2C7.46907 19.1084 6.14466 19.7799 4.72827 20.1762C3.31187 20.5724 1.83126 20.6856 0.371094 20.5093C2.92002 22.1485 5.88722 23.0188 8.91776 23.016C19.1751 23.016 24.7844 14.5186 24.7844 7.1493C24.7844 6.9093 24.7778 6.66663 24.7671 6.4293C25.8589 5.64019 26.8012 4.66266 27.5498 3.54263L27.5484 3.5413Z" fill="white"/>
</svg>
