<?xml version="1.0" encoding="UTF-8" standalone="no"?><!DOCTYPE svg PUBLIC "-//W3C//DTD SVG 1.1//EN" "http://www.w3.org/Graphics/SVG/1.1/DTD/svg11.dtd"><svg width="100%" height="100%" viewBox="0 0 450 50" version="1.1" xmlns="http://www.w3.org/2000/svg" xmlns:xlink="http://www.w3.org/1999/xlink" xml:space="preserve" xmlns:serif="http://www.serif.com/" style="fill-rule:evenodd;clip-rule:evenodd;stroke-linejoin:round;stroke-miterlimit:2;"><path d="M446.175,35.85l-7.65,0l-3.825,6.6l3.825,6.6l7.65,0l3.825,-6.6l-3.825,-6.6m-16.125,-23.175l-9.525,0l-6.675,11.475c-0.825,1.2 -1.125,1.95 -3,2.025l-4.575,0l0,-25.425l-8.55,0l0,48.3l8.55,0l0,-15.075l3.75,0c1.8,0.075 2.175,0.75 2.85,1.875l7.575,13.2l9.6,0l-10.5,-18.225l10.5,-18.15Zm-38.55,3.45c-1.35,-1.05 -2.775,-1.95 -4.35,-2.625c-2.4,-1.05 -4.95,-1.575 -7.575,-1.575c-3.375,0 -6.75,0.9 -9.675,2.625c-2.925,1.65 -5.4,4.05 -7.125,6.975c-1.725,2.85 -2.7,6.075 -2.7,9.375c0,3.3 0.9,6.6 2.7,9.45c1.725,2.925 4.2,5.325 7.125,6.975c5.325,3.075 11.775,3.45 17.4,0.975c1.5,-0.675 3,-1.575 4.275,-2.625l-3.825,-6.675c-1.05,1.125 -2.25,2.025 -3.6,2.625c-1.425,0.675 -3,1.05 -4.5,1.05c-1.95,0 -3.825,-0.525 -5.475,-1.575c-1.65,-1.05 -3.075,-2.55 -3.975,-4.275c-0.975,-1.8 -1.5,-3.825 -1.5,-5.85c0,-2.025 0.525,-4.05 1.5,-5.775c0.9,-1.725 2.325,-3.225 3.975,-4.275c1.65,-1.05 3.525,-1.575 5.475,-1.575c3.075,0 6,1.35 8.025,3.6l2.925,-5.1l0.9,-1.725Zm-52.725,-4.275c-4.575,0 -9.375,1.275 -14.475,3.825l3.3,5.775c3,-1.425 6.15,-2.55 9.45,-2.55c6.075,0 8.325,3.15 8.7,7.275l-9.975,0c-8.175,0 -14.85,4.95 -14.85,12.075c0,7.05 5.85,11.625 13.575,11.625c4.2,0 8.55,-1.575 11.25,-4.95l0,4.125l8.625,0l0,-21.825c0,-9.225 -6,-15.375 -15.6,-15.375Zm6.975,24.75c0,3.45 -3.45,7.05 -9.3,7.05c-4.05,0 -7.125,-2.175 -7.125,-5.625c0,-3.45 3.45,-5.7 7.725,-5.7l8.7,0l0,4.275Zm-39.675,-35.85l8.55,0l0,48.3l-8.55,0l0,-48.3Zm-15.525,22.8c4.5,-2.4 6.825,-6 6.825,-10.65c0,-2.175 -0.6,-4.35 -1.8,-6.225c-1.275,-1.875 -3,-3.375 -5.025,-4.35c-2.175,-1.05 -4.575,-1.575 -7.35,-1.5l-23.475,0l0,48.225l24.375,0c2.925,-0.075 5.625,-0.6 7.95,-1.725c2.25,-1.05 4.125,-2.625 5.475,-4.65c1.35,-2.025 2.025,-4.35 1.95,-6.75c0,-2.55 -0.825,-5.025 -2.325,-7.125c-1.65,-2.175 -3.825,-3.9 -6.6,-5.25Zm-22.425,-15.15l12.825,0c2.175,0 3.9,0.525 5.325,1.65c1.35,0.975 2.1,2.625 2.1,4.275c0,1.65 -0.675,3.075 -2.1,4.2c-1.425,1.125 -3.15,1.65 -5.325,1.65l-12.825,0l0,-11.775Zm19.95,31.125c-1.5,1.275 -3.45,1.95 -5.85,1.95l-14.1,0l0,-13.725l14.1,0c2.4,0 4.35,0.675 5.85,1.95c2.7,2.325 3.075,6.45 0.75,9.15c-0.15,0.15 -0.45,0.45 -0.75,0.675Zm-61.2,-25.8c-2.1,-1.2 -4.575,-1.8 -6.975,-1.8c-2.25,0 -4.5,0.525 -6.525,1.575c-1.875,0.975 -3.525,2.4 -4.725,4.125l0,-4.95l-8.55,0l0,36.375l8.55,0l0,-22.95c0.3,-1.95 1.35,-3.75 2.925,-4.875c1.65,-1.35 3.75,-2.025 5.85,-1.95c2.25,0 4.05,0.75 5.475,2.325c1.425,1.575 2.175,3.6 2.1,6.075l0,21.45l8.25,0l0,-23.1c0.075,-2.55 -0.525,-5.025 -1.725,-7.275c-0.975,-2.175 -2.625,-3.9 -4.65,-5.025Zm-41.55,0.825c-6,-3.45 -13.35,-3.45 -19.275,0c-2.925,1.65 -5.4,4.05 -7.125,6.975c-1.725,2.85 -2.7,6.075 -2.7,9.375c0,3.3 0.9,6.6 2.7,9.45c1.725,2.925 4.2,5.325 7.125,6.975c6,3.45 13.35,3.45 19.275,0c2.925,-1.725 5.4,-4.125 7.125,-6.975c1.725,-2.85 2.7,-6.075 2.7,-9.45c0,-3.3 -0.9,-6.6 -2.7,-9.375c-1.725,-2.925 -4.2,-5.325 -7.125,-6.975Zm-0.15,22.2c-0.975,1.725 -2.325,3.225 -4.05,4.275c-1.65,1.05 -3.525,1.575 -5.475,1.575c-1.95,0 -3.825,-0.525 -5.475,-1.575c-1.725,-1.05 -3.075,-2.55 -4.05,-4.275c-0.975,-1.8 -1.5,-3.825 -1.5,-5.85c0,-2.025 0.525,-4.05 1.5,-5.775c0.975,-1.725 2.4,-3.225 4.05,-4.275c1.65,-1.05 3.525,-1.575 5.475,-1.575c1.95,0 3.825,0.525 5.475,1.575c3.45,2.175 5.55,6 5.55,10.05c0.075,2.025 -0.45,4.05 -1.5,5.85Zm-41.55,-22.425c-2.55,-1.65 -5.55,-2.475 -8.55,-2.4c-5.025,-0.075 -9.825,2.4 -12.6,6.6l0,-17.7l-8.55,0l0,48.3l8.55,0l0,-5.85c2.775,4.2 7.575,6.675 12.6,6.6c3,0.075 6,-0.825 8.55,-2.4c2.55,-1.65 4.65,-3.975 5.925,-6.75c1.5,-3.075 2.25,-6.45 2.25,-9.825c0,-3.375 -0.75,-6.75 -2.25,-9.75c-1.275,-2.775 -3.375,-5.175 -5.925,-6.825Zm-3.375,24.975c-1.95,2.175 -4.5,3.3 -7.5,3.3c-3,0 -5.475,-1.125 -7.35,-3.3c-1.95,-2.175 -2.925,-5.025 -2.925,-8.4c0,-3.375 1.05,-6.225 2.925,-8.4c1.875,-2.175 4.35,-3.3 7.35,-3.3c3.075,0 5.55,1.125 7.5,3.3c1.95,2.175 2.925,4.95 2.925,8.4c0.075,3.375 -0.975,6.225 -2.925,8.4Zm-45.75,-20.7l0,-5.85l-8.55,0l0,36.375l8.55,0l0,-17.55c0,-3.45 1.2,-6.225 3.6,-8.325c2.4,-2.1 5.55,-2.925 9.375,-2.925l0,-7.575c-3.9,-0.075 -10.35,2.775 -12.975,5.85Zm-30.525,-6.75c-4.575,0 -9.375,1.275 -14.475,3.825l3.3,5.775c3,-1.425 6.15,-2.55 9.45,-2.55c6.075,0 8.325,3.15 8.7,7.275l-9.975,0c-8.175,0 -14.85,4.95 -14.85,12.075c0,7.05 5.85,11.625 13.575,11.625c4.2,0 8.55,-1.575 11.25,-4.95l0,4.125l8.625,0l0,-21.825c0,-9.225 -6,-15.375 -15.6,-15.375Zm6.975,24.75c0,3.45 -3.45,7.05 -9.3,7.05c-4.05,0 -7.125,-2.175 -7.125,-5.625c0,-3.45 3.45,-5.7 7.725,-5.7l8.7,0l0,4.275Zm-33.6,0c-6.45,6.6 -17.025,6.825 -23.625,0.375c-6.6,-6.45 -6.825,-17.025 -0.375,-23.625c6.45,-6.6 17.025,-6.825 23.625,-0.375c0.15,0.15 0.225,0.225 0.375,0.375l4.2,-7.275c-4.575,-3.9 -10.425,-6.075 -16.425,-6.075c-13.875,0 -25.125,11.175 -25.125,24.975c0,13.8 11.25,24.975 25.125,24.975c6,0 11.85,-2.1 16.425,-6l-4.2,-7.35Z" style="fill:#fff;fill-rule:nonzero;"/></svg>