<?xml version="1.0" encoding="UTF-8" standalone="no"?><!DOCTYPE svg PUBLIC "-//W3C//DTD SVG 1.1//EN" "http://www.w3.org/Graphics/SVG/1.1/DTD/svg11.dtd"><svg width="100%" height="100%" viewBox="0 0 298 158" version="1.1" xmlns="http://www.w3.org/2000/svg" xmlns:xlink="http://www.w3.org/1999/xlink" xml:space="preserve" xmlns:serif="http://www.serif.com/" style="fill-rule:evenodd;clip-rule:evenodd;stroke-linejoin:round;stroke-miterlimit:2;"><path id="path53690" d="M298,48.713c0,-3.569 -2.903,-6.462 -6.466,-6.462c-3.574,0 -6.476,2.893 -6.476,6.462l0,13.594c0,3.588 2.902,6.483 6.476,6.483c3.563,0 6.466,-2.895 6.466,-6.483l0,-13.594Zm-35.577,-17.841c0,-3.568 -2.894,-6.466 -6.547,-6.466c-3.573,0 -6.468,2.898 -6.468,6.466l0,31.435c0,3.588 2.895,6.483 6.468,6.483c3.653,0 6.547,-2.895 6.547,-6.483l0,-31.435Zm-35.649,-24.408c0,-3.57 -2.895,-6.464 -6.466,-6.464c-3.574,0 -6.468,2.894 -6.468,6.464l0,68.76c0,3.59 2.894,6.483 6.468,6.483c3.571,0 6.466,-2.893 6.466,-6.483l0,-68.76Zm-35.658,24.408c0,-3.568 -2.893,-6.466 -6.466,-6.466c-3.565,0 -6.468,2.898 -6.468,6.466l0,31.435c0,3.588 2.903,6.483 6.468,6.483c3.573,0 6.466,-2.895 6.466,-6.483l0,-31.435Zm-35.65,17.841c0,-3.569 -2.893,-6.462 -6.445,-6.462c-3.574,0 -6.487,2.893 -6.487,6.462l0,13.594c0,3.588 2.913,6.483 6.487,6.483c3.552,0 6.445,-2.895 6.445,-6.483l0,-13.594Zm-35.591,-17.841c0,-3.568 -2.916,-6.466 -6.487,-6.466c-3.574,0 -6.489,2.898 -6.489,6.466l0,31.435c0,3.588 2.915,6.483 6.489,6.483c3.571,0 6.487,-2.895 6.487,-6.483l0,-31.435Zm-35.633,-24.408c0,-3.57 -2.916,-6.464 -6.489,-6.464c-3.572,0 -6.487,2.894 -6.487,6.464l0,68.76c0,3.59 2.915,6.483 6.487,6.483c3.573,0 6.489,-2.893 6.489,-6.483l0,-68.76Zm-35.635,24.408c0,-3.568 -2.914,-6.466 -6.487,-6.466c-3.573,0 -6.487,2.898 -6.487,6.466l0,31.435c0,3.588 2.914,6.483 6.487,6.483c3.573,0 6.487,-2.895 6.487,-6.483l0,-31.435Zm-35.633,17.841c0,-3.569 -2.914,-6.462 -6.487,-6.462c-3.569,0 -6.487,2.893 -6.487,6.462l0,13.594c0,3.588 2.918,6.483 6.487,6.483c3.573,0 6.487,-2.895 6.487,-6.483l0,-13.594Zm133.929,56.365c-0.389,-0.106 -6.375,-1.65 -12.737,-1.65c-12.044,0 -19.295,6.504 -19.295,16.189c0,8.573 6.066,12.848 13.346,15.148c0.807,0.266 1.997,0.639 2.788,0.901c3.241,1.019 5.828,2.534 5.828,5.158c0,2.935 -2.99,4.835 -9.489,4.835c-5.712,0 -11.187,-1.634 -12.341,-1.925l0,11.916c0.643,0.136 7.151,1.414 14.103,1.414c9.999,0 21.438,-4.369 21.438,-17.377c0,-6.309 -3.863,-12.117 -12.344,-14.813l-3.605,-1.147c-2.151,-0.679 -5.99,-1.779 -5.99,-4.931c0,-2.49 2.845,-4.244 8.083,-4.244c4.52,0 10.02,1.519 10.215,1.58l0,-11.054Zm110.427,25.169c0,7.534 -5.771,13.629 -13.515,13.629c-7.752,0 -13.508,-6.095 -13.508,-13.629c0,-7.519 5.756,-13.617 13.508,-13.617c7.744,0 13.515,6.098 13.515,13.617m-13.515,-26.802c-15.926,0 -27.348,12.012 -27.348,26.802c0,14.813 11.422,26.817 27.348,26.817c15.925,0 27.364,-12.004 27.364,-26.817c0,-14.79 -11.439,-26.802 -27.364,-26.802m-177.496,1.855c-1.228,-0.364 -5.767,-1.855 -11.915,-1.855c-15.901,0 -27.574,11.337 -27.574,26.802c0,16.684 12.885,26.817 27.574,26.817c5.836,0 10.291,-1.382 11.915,-1.843l0,-13.9c-0.562,0.312 -4.833,2.748 -10.978,2.748c-8.705,0 -14.32,-6.127 -14.32,-13.822c0,-7.93 5.857,-13.812 14.32,-13.812c6.25,0 10.452,2.49 10.978,2.765l0,-13.9Zm136.39,0c-1.238,-0.364 -5.781,-1.855 -11.908,-1.855c-15.925,0 -27.598,11.337 -27.598,26.802c0,16.684 12.901,26.817 27.598,26.817c5.804,0 10.266,-1.382 11.908,-1.843l0,-13.9c-0.574,0.312 -4.851,2.748 -10.994,2.748c-8.699,0 -14.308,-6.127 -14.308,-13.822c0,-7.93 5.86,-13.812 14.308,-13.812c6.248,0 10.46,2.49 10.994,2.765l0,-13.9Zm-105.361,50.842l-13.068,0l0,-51.78l13.068,0l0,51.78Z" style="fill:#fff;fill-rule:nonzero;"/></svg>