<?xml version="1.0" encoding="UTF-8" standalone="no"?><!-- Generator: Gravit.io --><svg xmlns="http://www.w3.org/2000/svg" xmlns:xlink="http://www.w3.org/1999/xlink" style="isolation:isolate" viewBox="0 0 1024 124" width="1024pt" height="124pt"><defs><clipPath id="_clipPath_VAVf6RUq1kq88E9IcXE5E6kSvMjcmyfX"><rect width="1024" height="124"/></clipPath></defs><g clip-path="url(#_clipPath_VAVf6RUq1kq88E9IcXE5E6kSvMjcmyfX)"><path d=" M 663.079 119.236 L 635.079 119.236 L 635.079 4.981 L 725.141 5.055 C 725.141 5.055 741.631 4.44 752.115 14.802 C 752.115 14.802 762.821 23.744 762.821 45.591 L 762.821 119.212 L 734.895 119.212 L 734.895 43.687 C 734.895 43.687 735.24 35.984 732.615 33.277 C 732.615 33.277 730.293 30.34 725.879 30.34 L 663.022 30.34 L 663.081 119.237 L 663.079 119.236 L 663.079 119.236 Z  M 782.255 119.217 L 782.255 12.205 L 782.255 5.027 L 894.648 5.027 L 894.648 30.418 L 810.132 30.411 L 810.132 49.822 L 868.855 49.822 L 868.855 74.343 L 810.132 74.343 L 810.132 93.819 L 895.206 93.819 L 895.206 119.218 L 782.255 119.218 L 782.255 119.217 L 782.255 119.217 Z  M 586.302 119.217 L 586.302 12.205 L 586.302 5.027 L 614.179 5.027 L 614.179 119.217 L 586.302 119.217 L 586.302 119.217 Z  M 941.926 23.237 L 941.926 19.39 L 941.926 23.237 L 941.926 23.237 Z  M 934.74 119.214 L 934.74 30.416 L 908.422 30.416 L 908.422 5.025 L 1013.078 5.025 L 1013.078 30.416 L 962.616 30.416 L 962.616 119.214 L 934.74 119.214 L 934.74 119.214 Z  M 501.357 23.237 L 501.357 19.389 L 501.357 23.237 L 501.357 23.237 Z  M 494.171 119.214 L 494.171 30.415 L 467.853 30.415 L 467.853 5.024 L 572.509 5.024 L 572.509 30.415 L 522.047 30.415 L 522.047 119.214 L 494.171 119.214 L 494.171 119.214 Z  M 410.075 49.802 C 416.884 49.749 420.961 49.809 422.602 48.809 C 422.602 48.809 425.465 47.226 425.498 43.83 L 425.504 36.364 C 425.504 32.951 422.608 31.384 422.608 31.384 C 420.434 30.203 416.751 30.424 408.006 30.416 L 353.688 30.416 L 353.688 49.802 L 411.32 49.802 L 410.073 49.802 L 410.075 49.802 L 410.075 49.802 Z  M 425.096 119.215 L 425.096 80.246 C 425.096 76.743 422.167 75.275 422.167 75.275 C 420.846 74.455 416.892 74.307 411.067 74.307 L 412.421 74.307 L 353.689 74.307 L 353.689 119.215 L 325.813 119.215 L 325.813 12.204 L 325.813 5.025 L 412.839 5.025 C 427.869 5.071 438.247 7.281 445.392 14.222 C 452.415 21.376 453.35 30.736 453.383 40.474 L 453.383 48.604 C 453.473 56.882 449.125 64.429 443.94 68.827 L 444.982 69.344 C 447.099 70.369 448.255 71.821 448.255 71.821 C 452.201 76.859 452.152 81.19 452.144 86.523 L 452.144 119.215 L 425.096 119.215 L 425.096 119.215 Z  M 3.498 5.015 L 3.498 119.205 L 31.375 119.205 L 31.375 74.338 L 115.834 74.338 L 115.834 49.809 L 31.375 49.809 L 31.375 30.406 L 129.567 30.406 L 129.567 5.015 L 3.498 5.015 L 3.498 5.015 Z " fill="rgb(255,255,255)"/><path d=" M 1003.5 99.001 L 1003.5 104.244 L 1008.381 104.244 C 1009.702 104.244 1010.982 103.883 1011.179 101.922 C 1011.458 99.321 1009.579 99.001 1008.381 99.001 L 1003.5 99.001 L 1003.5 99.001 Z  M 1001.539 97.279 L 1008.34 97.279 C 1010.703 97.279 1012.983 97.722 1013.18 101.159 C 1013.262 103.128 1012.663 103.842 1011.179 104.966 C 1012.746 105.967 1012.787 106.204 1013.025 108.846 C 1013.181 110.848 1012.901 111.168 1013.746 112.489 L 1011.425 112.489 L 1011.105 110.569 C 1010.785 108.764 1011.663 105.967 1008.505 105.967 L 1003.5 105.967 L 1003.5 112.489 L 1001.539 112.489 L 1001.539 97.279 L 1001.539 97.279 Z  M 1006.658 93.078 C 999.939 93.078 994.459 98.558 994.5 105.327 C 994.5 112.046 999.939 117.526 1006.699 117.493 C 1013.426 117.493 1018.907 112.046 1018.907 105.286 C 1018.907 98.558 1013.426 93.078 1006.658 93.078 M 1006.698 119.084 C 999.06 119.084 992.891 112.923 992.891 105.286 C 992.858 97.681 999.06 91.479 1006.698 91.479 C 1014.303 91.479 1020.505 97.681 1020.505 105.286 C 1020.505 112.923 1014.303 119.052 1006.698 119.084 Z " fill="rgb(255,255,255)"/><path d=" M 287.525 120.303 C 296.582 117.226 303.629 106.799 305.327 93.681 L 305.327 89.891 L 258.893 89.891 L 258.893 120.303 L 287.525 120.303 L 287.525 120.303 Z  M 305.329 34.124 L 305.329 30.695 C 303.549 17.011 295.977 6.231 286.321 3.696 L 258.896 3.696 L 258.896 34.124 L 305.329 34.124 L 305.329 34.124 Z  M 141.88 89.893 L 141.88 93.65 C 143.562 106.776 150.609 117.228 159.691 120.304 L 188.174 120.304 L 188.174 89.893 L 141.88 89.893 L 141.88 89.893 Z  M 160.882 3.7 C 151.242 6.235 143.645 17.023 141.882 30.723 L 141.882 34.128 L 188.176 34.128 L 188.176 3.7 L 160.882 3.7 L 160.882 3.7 Z  M 305.333 46.794 L 258.899 46.794 L 258.899 77.222 L 305.333 77.222 L 305.333 46.794 L 305.333 46.794 Z  M 200.824 120.3 L 246.249 120.3 L 246.249 89.889 L 200.824 89.889 L 200.824 120.3 L 200.824 120.3 Z  M 246.249 3.699 L 200.824 3.699 L 200.824 34.127 L 246.249 34.127 L 246.249 3.699 L 246.249 3.699 Z  M 141.879 77.222 L 188.174 77.222 L 188.174 46.794 L 141.879 46.794 L 141.879 77.222 L 141.879 77.222 Z " fill="rgb(255,255,255)"/></g></svg>