<?xml version="1.0" encoding="UTF-8" standalone="no"?><!-- Generator: Gravit.io --><svg xmlns="http://www.w3.org/2000/svg" xmlns:xlink="http://www.w3.org/1999/xlink" style="isolation:isolate" viewBox="0 0 2500 676" width="2500pt" height="676pt"><defs><clipPath id="_clipPath_fNmdR0gZ0BKir3LomYVYD4RuRaZVyAP6"><rect width="2500" height="676"/></clipPath></defs><g clip-path="url(#_clipPath_fNmdR0gZ0BKir3LomYVYD4RuRaZVyAP6)"><clipPath id="_clipPath_o0klvbs9QyeZkJsNzXx19iuEOrVpvYdb"><rect x="0" y="0" width="2500" height="676" transform="matrix(1,0,0,1,0,0)" fill="rgb(255,255,255)"/></clipPath><g clip-path="url(#_clipPath_o0klvbs9QyeZkJsNzXx19iuEOrVpvYdb)"><g><path d=" M 753.111 306.531 L 617.277 306.531 C 613.796 306.533 610.93 309.397 610.929 312.878 L 610.929 379.291 C 610.93 382.774 613.794 385.642 617.277 385.649 L 670.266 385.649 L 670.266 468.157 C 670.266 468.157 658.368 472.216 625.473 472.216 C 586.665 472.216 532.45 458.032 532.45 338.819 C 532.45 219.583 588.902 203.891 641.902 203.891 C 687.778 203.891 707.544 211.973 720.118 215.86 C 724.07 217.072 727.725 213.141 727.725 209.63 L 742.878 145.466 C 742.878 143.827 742.324 141.848 740.451 140.505 C 735.345 136.863 704.188 119.428 625.473 119.428 C 534.792 119.428 441.776 158.011 441.776 343.468 C 441.776 528.938 548.272 556.572 638.015 556.572 C 712.32 556.572 757.396 524.819 757.396 524.819 C 759.253 523.788 759.455 521.193 759.455 520.002 L 759.455 312.875 C 759.455 309.375 756.614 306.531 753.111 306.531 Z  M 1453.144 141.649 L 1453.144 141.595 C 1453.144 138.133 1450.302 135.28 1446.838 135.268 L 1370.353 135.268 C 1366.874 135.281 1364.018 138.147 1364.018 141.626 C 1364.018 141.634 1364.018 141.641 1364.019 141.649 L 1364.039 289.456 L 1244.822 289.456 L 1244.822 141.649 L 1244.822 141.603 C 1244.822 138.136 1241.977 135.281 1238.51 135.268 L 1162.03 135.268 C 1158.548 135.286 1155.697 138.166 1155.712 141.649 L 1155.712 541.866 C 1155.712 545.394 1158.551 548.265 1162.03 548.265 L 1238.51 548.265 C 1242.008 548.265 1244.822 545.391 1244.822 541.866 L 1244.822 370.678 L 1364.039 370.678 L 1363.83 541.866 C 1363.83 545.394 1366.671 548.265 1370.168 548.265 L 1446.832 548.265 C 1450.337 548.265 1453.136 545.391 1453.144 541.866 L 1453.144 141.649 Z  M 897.435 194.17 C 897.435 166.628 875.355 144.372 848.116 144.372 C 820.902 144.372 798.805 166.628 798.805 194.17 C 798.805 221.68 820.902 243.993 848.116 243.993 C 875.355 243.993 897.435 221.68 897.435 194.17 Z  M 891.965 457.443 L 891.965 272.704 C 891.975 269.22 889.122 266.344 885.637 266.325 L 809.397 266.325 C 805.9 266.325 802.77 269.934 802.77 273.444 L 802.77 538.117 C 802.77 545.899 807.617 548.208 813.891 548.208 L 882.581 548.208 C 890.118 548.208 891.965 544.506 891.965 537.996 L 891.965 457.443 Z  M 1743.808 266.928 L 1667.912 266.928 C 1664.432 266.928 1661.597 269.795 1661.597 273.326 L 1661.597 469.564 C 1661.597 469.564 1642.315 483.674 1614.95 483.674 C 1587.585 483.674 1580.325 471.257 1580.325 444.462 L 1580.325 273.326 C 1580.325 269.795 1577.495 266.928 1574.014 266.928 L 1496.981 266.928 C 1493.508 266.928 1490.658 269.795 1490.658 273.326 L 1490.658 457.417 C 1490.658 537.006 1535.017 556.478 1596.043 556.478 C 1646.104 556.478 1686.465 528.824 1686.465 528.824 C 1686.465 528.824 1688.386 543.395 1689.255 545.125 C 1690.126 546.848 1692.392 548.589 1694.838 548.589 L 1743.846 548.373 C 1747.319 548.373 1750.171 545.499 1750.171 541.985 L 1750.144 273.33 C 1750.144 269.795 1747.306 266.928 1743.808 266.928 Z  M 1921.308 483.431 C 1894.985 482.63 1877.129 470.682 1877.129 470.682 L 1877.129 343.946 C 1877.129 343.946 1894.741 333.148 1916.355 331.216 C 1943.686 328.769 1970.02 337.025 1970.02 402.22 C 1970.024 470.971 1958.139 484.539 1921.308 483.431 Z  M 1951.245 257.94 C 1908.139 257.94 1878.817 277.174 1878.817 277.174 L 1878.817 141.653 C 1878.817 138.118 1875.994 135.268 1872.508 135.268 L 1795.808 135.268 C 1792.336 135.284 1789.488 138.146 1789.488 141.619 L 1789.488 541.866 C 1789.488 545.394 1792.322 548.265 1795.818 548.265 L 1849.037 548.265 C 1851.43 548.265 1853.245 547.03 1854.584 544.869 C 1855.907 542.718 1857.815 526.417 1857.815 526.417 C 1857.815 526.417 1889.179 556.138 1948.548 556.138 C 2018.25 556.138 2058.224 520.783 2058.224 397.423 C 2058.224 274.06 1994.383 257.94 1951.245 257.94 Z  M 1111.786 266.292 L 1054.414 266.292 L 1054.326 190.495 C 1054.326 187.627 1052.849 186.193 1049.533 186.193 L 971.349 186.193 C 968.31 186.193 966.679 187.533 966.679 190.451 L 966.679 268.779 C 966.679 268.779 927.498 278.233 924.85 279.001 C 922.143 279.785 920.268 282.282 920.27 285.1 L 920.27 334.319 C 920.27 337.86 923.097 340.708 926.594 340.708 L 966.679 340.708 L 966.679 459.113 C 966.679 547.064 1028.369 555.704 1069.998 555.704 C 1089.019 555.704 1111.772 549.598 1115.529 548.204 C 1117.799 547.37 1119.119 545.017 1119.119 542.466 L 1119.183 488.322 C 1119.183 484.788 1116.202 481.937 1112.842 481.937 C 1109.5 481.937 1100.948 483.297 1092.142 483.297 C 1063.962 483.297 1054.414 470.194 1054.414 453.233 L 1054.41 340.704 L 1111.786 340.704 C 1115.283 340.704 1118.113 337.854 1118.113 334.316 L 1118.113 272.663 L 1118.113 272.633 C 1118.113 269.159 1115.259 266.299 1111.786 266.292 Z " fill="rgb(255,255,255)"/></g></g></g></svg>