<?xml version="1.0" encoding="UTF-8" standalone="no"?><!-- Generator: Gravit.io --><svg xmlns="http://www.w3.org/2000/svg" xmlns:xlink="http://www.w3.org/1999/xlink" style="isolation:isolate" viewBox="0 0 500 127" width="500pt" height="127pt"><defs><clipPath id="_clipPath_Bz7QE2sJKJ1e9Gno8f6ujMIblklSsIrc"><rect width="500" height="127"/></clipPath></defs><g clip-path="url(#_clipPath_Bz7QE2sJKJ1e9Gno8f6ujMIblklSsIrc)"><g><g><path d=" M 137.942 44.444 C 135.186 41.628 132.191 39.471 129.015 37.972 C 125.838 36.474 121.824 35.755 117.209 35.755 C 113.494 35.755 109.958 36.415 106.663 37.732 C 103.367 39.05 100.49 40.908 98.033 43.305 C 95.517 45.703 93.54 48.639 92.101 52.054 C 90.663 55.47 89.944 59.245 89.944 63.44 C 89.944 67.634 90.663 71.409 92.101 74.825 C 93.54 78.24 95.517 81.117 98.033 83.514 C 100.551 85.911 103.486 87.829 106.783 89.147 C 110.079 90.465 113.674 91.124 117.449 91.124 C 121.464 91.124 124.999 90.585 127.996 89.447 C 130.992 88.308 133.568 86.749 135.725 84.832 C 137.164 83.514 138.482 81.896 139.621 79.978 C 140.76 78.001 141.658 75.845 142.317 73.447 L 116.97 73.447 L 116.97 59.065 L 158.316 59.065 C 158.557 60.025 158.736 61.162 158.916 62.601 C 159.096 64.039 159.156 65.357 159.156 66.735 C 159.156 72.428 158.316 77.582 156.639 82.316 C 154.961 87.05 152.384 91.184 149.029 94.84 C 145.253 98.854 140.76 101.911 135.486 104.128 C 130.213 106.345 124.16 107.424 117.389 107.424 C 111.276 107.424 105.525 106.345 100.131 104.128 C 94.738 101.911 90.004 98.854 85.929 94.96 C 81.915 91.064 78.739 86.45 76.341 81.117 C 73.944 75.784 72.806 69.852 72.806 63.5 C 72.806 57.148 74.005 51.275 76.341 45.882 C 78.679 40.489 81.854 35.875 85.929 31.98 C 89.944 28.084 94.678 25.088 100.131 22.871 C 105.584 20.654 111.337 19.576 117.389 19.576 C 124.34 19.576 130.512 20.774 135.845 23.171 C 141.178 25.568 145.793 28.864 149.688 33.059 L 137.942 44.444 L 137.942 44.444 Z " fill="rgb(255,255,255)"/><path d=" M 244.187 83.034 C 244.187 90.406 241.49 96.338 236.097 100.831 C 230.644 105.206 223.993 107.424 216.143 107.424 C 209.192 107.424 203.02 105.386 197.687 101.312 C 192.354 97.236 188.698 91.664 186.66 84.652 L 196.967 80.398 C 197.687 82.914 198.645 85.192 199.903 87.229 C 201.162 89.267 202.6 91.004 204.278 92.442 C 205.956 93.881 207.813 95.019 209.851 95.858 C 211.888 96.697 214.045 97.116 216.323 97.116 C 221.236 97.116 225.311 95.858 228.427 93.281 C 231.543 90.765 233.101 87.349 233.101 83.154 C 233.101 79.619 231.783 76.622 229.206 74.106 C 226.809 71.709 222.255 69.311 215.603 67.035 C 208.892 64.637 204.697 62.96 203.02 62.122 C 194.091 57.568 189.657 50.915 189.657 42.047 C 189.657 35.875 192.113 30.602 197.027 26.227 C 202.061 21.853 208.173 19.635 215.484 19.635 C 221.895 19.635 227.469 21.253 232.143 24.55 C 236.816 27.786 239.992 31.8 241.551 36.654 L 231.543 40.788 C 230.585 37.673 228.727 35.036 225.97 32.998 C 223.213 30.901 219.798 29.883 215.843 29.883 C 211.589 29.883 208.053 31.081 205.177 33.418 C 202.301 35.575 200.862 38.451 200.862 41.927 C 200.862 44.804 202.001 47.32 204.278 49.417 C 206.795 51.515 212.248 54.032 220.577 56.908 C 229.087 59.784 235.198 63.379 238.854 67.575 C 242.389 71.769 244.187 76.922 244.187 83.034 L 244.187 83.034 Z " fill="rgb(255,255,255)"/><path d=" M 304.05 105.506 L 293.744 105.506 L 293.744 97.536 L 293.264 97.536 C 291.646 100.352 289.07 102.689 285.714 104.607 C 282.298 106.465 278.763 107.424 275.107 107.424 C 268.037 107.424 262.643 105.386 258.869 101.371 C 255.093 97.357 253.176 91.604 253.176 84.173 L 253.176 47.979 L 263.962 47.979 L 263.962 83.454 C 264.202 92.862 268.935 97.536 278.164 97.536 C 282.479 97.536 286.074 95.798 288.95 92.323 C 291.826 88.847 293.264 84.652 293.264 79.799 L 293.264 47.979 L 304.05 47.979 L 304.05 105.506 L 304.05 105.506 Z " fill="rgb(255,255,255)"/><path d=" M 328.679 28.145 C 328.679 30.243 327.96 32.04 326.462 33.538 C 324.964 35.036 323.165 35.755 321.068 35.755 C 318.971 35.755 317.174 35.036 315.676 33.538 C 314.178 32.04 313.458 30.243 313.458 28.145 C 313.458 26.048 314.178 24.25 315.676 22.751 C 317.174 21.253 318.971 20.535 321.068 20.535 C 323.165 20.535 324.964 21.253 326.462 22.751 C 327.96 24.25 328.679 26.048 328.679 28.145 Z  M 326.462 47.979 L 326.462 105.506 L 315.676 105.506 L 315.676 47.979 L 326.462 47.979 Z " fill="rgb(255,255,255)"/><path d=" M 359.6 106.465 C 354.925 106.465 351.031 105.026 347.914 102.15 C 344.798 99.274 343.241 95.199 343.18 90.046 L 343.18 57.867 L 333.053 57.867 L 333.053 47.979 L 343.121 47.979 L 343.121 30.362 L 353.907 30.362 L 353.907 47.979 L 367.989 47.979 L 367.989 57.867 L 353.907 57.867 L 353.907 86.51 C 353.907 90.345 354.626 92.921 356.124 94.3 C 357.622 95.678 359.3 96.338 361.157 96.338 C 361.996 96.338 362.835 96.218 363.675 96.038 C 364.513 95.858 365.232 95.559 365.951 95.259 L 369.367 104.906 C 366.67 105.926 363.375 106.465 359.6 106.465 Z " fill="rgb(255,255,255)"/><path d=" M 399.988 107.364 C 391.538 107.364 384.587 104.488 379.075 98.675 C 373.621 92.862 370.864 85.552 370.864 76.742 C 370.864 67.994 373.502 60.683 378.835 54.87 C 384.169 49.058 390.939 46.122 399.269 46.122 C 407.778 46.122 414.609 48.879 419.643 54.391 C 424.676 59.904 427.194 67.634 427.194 77.582 L 427.073 78.78 L 381.891 78.78 C 382.071 84.413 383.929 88.967 387.524 92.383 C 391.119 95.798 395.434 97.536 400.467 97.536 C 407.358 97.536 412.751 94.121 416.646 87.229 L 426.294 91.904 C 423.718 96.757 420.123 100.532 415.569 103.289 C 410.954 105.986 405.74 107.364 399.988 107.364 L 399.988 107.364 Z  M 382.73 69.792 L 415.748 69.792 C 415.449 65.776 413.831 62.481 410.894 59.844 C 407.958 57.207 404.002 55.889 399.089 55.889 C 395.015 55.889 391.538 57.148 388.603 59.665 C 385.606 62.242 383.689 65.597 382.73 69.792 L 382.73 69.792 Z " fill="rgb(255,255,255)"/></g></g></g></svg>