<?xml version="1.0" encoding="UTF-8" standalone="no"?><!-- Generator: Gravit.io --><svg xmlns="http://www.w3.org/2000/svg" xmlns:xlink="http://www.w3.org/1999/xlink" style="isolation:isolate" viewBox="0 0 290 80" width="290pt" height="80pt"><defs><clipPath id="_clipPath_ri65fCZFYguJHYAYf02EFWVoGIYbKnCG"><rect width="290" height="80"/></clipPath></defs><g clip-path="url(#_clipPath_ri65fCZFYguJHYAYf02EFWVoGIYbKnCG)"><g><path d=" M 151.5 59.044 L 152.748 59.044 L 152.748 71.212 L 151.564 71.212 L 144.059 60.882 L 144.059 71.212 L 142.811 71.212 L 142.811 59.044 L 144.223 59.044 L 151.5 69.077 L 151.5 59.044 Z  M 157.147 65.514 L 163.733 65.514 L 163.733 64.298 L 157.147 64.298 L 157.147 60.277 L 163.897 60.277 L 163.897 59.044 L 155.851 59.044 L 155.851 71.212 L 163.963 71.212 L 163.963 70.029 L 157.147 70.029 L 157.147 65.514 L 157.147 65.514 Z  M 165.851 60.276 L 170.416 60.276 L 170.416 71.214 L 171.715 71.214 L 171.715 60.276 L 176.28 60.276 L 176.28 59.043 L 165.851 59.043 L 165.851 60.276 Z  M 190.022 69.11 L 186.772 59.044 L 185.656 59.044 L 182.386 69.11 L 179.185 59.044 L 177.855 59.044 L 181.78 71.294 L 182.913 71.294 L 186.181 61.163 L 189.466 71.294 L 190.581 71.294 L 194.489 59.044 L 193.241 59.044 L 190.022 69.11 L 190.022 69.11 Z  M 207.905 65.121 C 207.905 69.472 205.672 71.41 201.763 71.41 C 197.872 71.41 195.655 69.472 195.655 65.121 C 195.655 60.784 197.872 58.848 201.763 58.848 C 205.672 58.848 207.905 60.784 207.905 65.121 Z  M 206.609 65.136 C 206.609 61.851 205.081 60.078 201.763 60.078 C 198.462 60.078 196.952 61.851 196.952 65.136 C 196.952 68.437 198.462 70.212 201.763 70.212 C 205.081 70.212 206.609 68.437 206.609 65.136 Z  M 216.789 66.203 L 219.729 71.213 L 218.35 71.213 L 215.461 66.252 L 211.813 66.252 L 211.813 71.213 L 210.55 71.213 L 210.55 59.045 L 215.806 59.045 C 218.63 59.045 219.91 60.178 219.91 62.592 C 219.91 64.692 218.908 65.926 216.789 66.203 Z  M 218.612 62.624 C 218.612 60.735 217.577 60.244 215.773 60.244 L 211.813 60.244 L 211.813 65.071 L 215.821 65.071 C 217.546 65.071 218.612 64.545 218.612 62.624 L 218.612 62.624 Z  M 231.585 59.045 L 230.091 59.045 L 223.932 65.761 L 223.932 59.045 L 222.668 59.045 L 222.668 71.213 L 223.932 71.213 L 223.932 67.418 L 226.363 64.759 L 230.715 71.213 L 232.177 71.213 L 227.218 63.822 L 231.585 59.045 L 231.585 59.045 Z  M 238.583 64.315 C 236.413 63.921 235.15 63.627 235.15 62.082 C 235.15 60.637 236.086 60.03 238.269 60.03 C 239.648 60.03 240.946 60.408 241.816 60.982 L 242.506 59.932 C 241.537 59.273 240.175 58.847 238.269 58.847 C 235.377 58.847 233.867 59.766 233.867 62.117 C 233.867 64.577 235.641 65.022 238.269 65.482 C 240.453 65.875 241.897 66.121 241.897 67.847 C 241.897 69.521 240.781 70.227 238.269 70.227 C 236.808 70.227 235.377 69.915 233.916 68.996 L 233.261 69.981 C 234.803 70.999 236.464 71.375 238.302 71.375 C 241.619 71.375 243.161 70.211 243.161 67.797 C 243.161 65.185 241.241 64.791 238.583 64.315 L 238.583 64.315 Z " fill="rgb(255,255,255)"/><path d=" M 259.947 8.923 L 259.947 12.765 C 258.739 12.624 257.396 12.544 255.883 12.544 C 241.763 12.544 242.084 19.08 242.084 27.23 L 242.084 53.775 L 238.051 53.775 L 238.051 27.23 C 238.051 16.417 238.777 8.753 255.883 8.753 C 257.357 8.753 258.701 8.813 259.947 8.923 Z  M 88.396 36.184 C 88.396 44.335 88.718 50.871 74.598 50.871 C 60.398 50.871 60.477 44.335 60.477 36.589 L 60.477 9.638 L 56.362 9.638 L 56.362 36.508 C 56.362 46.998 57.41 54.664 74.598 54.664 C 91.702 54.664 92.43 46.998 92.43 36.184 L 92.43 9.638 L 88.396 9.638 L 88.396 36.184 L 88.396 36.184 Z  M 117.089 8.752 C 99.983 8.752 99.258 16.417 99.258 27.23 L 99.258 53.775 L 103.29 53.775 L 103.29 27.23 C 103.29 19.08 102.966 12.544 117.089 12.544 C 131.29 12.544 131.209 19.08 131.209 26.826 L 131.209 53.775 L 135.324 53.775 L 135.324 26.906 C 135.324 16.417 134.276 8.752 117.089 8.752 L 117.089 8.752 Z  M 142.813 53.766 L 146.763 53.766 L 146.763 9.711 L 142.813 9.711 L 142.813 53.766 Z  M 189.647 23.841 C 189.647 32.938 185.069 38.469 174.726 38.469 L 158.107 38.469 L 158.107 53.776 L 154.157 53.776 L 154.157 9.721 L 174.782 9.721 C 185.009 9.721 189.647 14.805 189.647 23.841 Z  M 185.509 24.017 C 185.509 17.005 181.688 13.675 174.666 13.675 L 158.107 13.675 L 158.107 34.507 L 174.842 34.507 C 181.969 34.507 185.509 31.034 185.509 24.017 L 185.509 24.017 Z  M 232.25 32.311 L 198.2 32.311 C 198.28 43.044 200.941 51.032 214.901 51.032 C 222.325 51.032 225.714 49.014 229.345 46.353 L 231.601 49.338 C 227.568 52.324 222.809 54.664 214.901 54.664 C 197.473 54.664 194.245 44.577 194.245 31.587 C 194.245 18.598 197.957 8.59 214.58 8.59 C 231.766 8.59 232.33 20.127 232.25 32.311 L 232.25 32.311 Z  M 228.294 28.6 C 227.892 19.806 227.327 12.302 214.496 12.302 C 202.153 12.302 198.764 18.999 198.28 28.6 L 228.294 28.6 Z  M 45.385 44.858 C 45.385 53.007 45.707 59.545 31.586 59.545 C 31.053 59.545 30.547 59.53 30.053 59.51 L 30.053 63.315 C 30.548 63.327 31.059 63.335 31.586 63.335 C 48.692 63.335 49.42 55.671 49.42 44.858 L 49.42 9.639 L 45.385 9.639 L 45.385 44.858 Z " fill="rgb(255,255,255)"/></g></g></svg>