<?xml version="1.0" encoding="UTF-8" standalone="no"?><!-- Generator: Gravit.io --><svg xmlns="http://www.w3.org/2000/svg" xmlns:xlink="http://www.w3.org/1999/xlink" style="isolation:isolate" viewBox="0 0 2500 550" width="2500pt" height="550pt"><defs><clipPath id="_clipPath_YlyfPmRPfGWuNwL9VXYAXWrjbRrH7vpr"><rect width="2500" height="550"/></clipPath></defs><g clip-path="url(#_clipPath_YlyfPmRPfGWuNwL9VXYAXWrjbRrH7vpr)"><g><path d=" M 973.126 271.635 C 973.126 302.705 967.47 329.947 956.151 353.334 C 944.801 376.725 928.531 394.747 907.295 407.358 C 886.066 419.965 861.62 426.298 833.941 426.298 C 807.202 426.298 783.442 420.158 762.615 407.886 C 741.773 395.61 725.684 378.186 714.289 355.571 C 702.888 333 697.181 307.4 697.181 278.767 C 697.181 247.956 702.951 220.841 714.491 197.359 C 725.998 173.905 742.572 155.894 764.136 143.343 C 785.703 130.788 810.673 124.509 839.018 124.509 C 864.932 124.509 888.177 130.689 908.736 143.029 C 929.271 155.367 945.151 172.748 956.34 195.118 C 967.534 217.493 973.126 243.006 973.126 271.635 M 937.318 276.113 C 937.318 238.119 928.428 208.473 910.666 187.183 C 892.864 165.898 868.114 155.242 836.386 155.242 C 816.442 155.242 798.554 160.302 782.756 170.401 C 766.959 180.507 754.707 194.846 746.014 213.447 C 737.342 232.057 732.994 252.794 732.994 275.711 C 732.994 299.043 737.168 319.849 745.522 338.097 C 753.867 356.343 765.755 370.447 781.22 380.428 C 796.702 390.384 814.264 395.397 833.937 395.397 C 866.22 395.397 891.529 384.807 909.846 363.641 C 928.165 342.46 937.318 313.276 937.318 276.113 M 1119.846 142.013 C 1113.319 138.329 1105.943 136.514 1097.649 136.514 C 1074.317 136.514 1062.651 151.244 1062.651 180.696 L 1062.651 212.834 L 1111.488 212.834 L 1111.488 241.104 L 1062.651 241.104 L 1062.651 421.206 L 1029.273 421.206 L 1029.273 241.1 L 993.866 241.1 L 993.866 212.83 L 1029.273 212.83 L 1029.273 179.053 C 1029.273 157.864 1035.514 140.776 1047.988 127.77 C 1060.473 114.734 1076.366 108.224 1095.629 108.224 C 1105.801 108.224 1113.851 109.449 1119.842 111.906 L 1119.842 142.02 L 1119.846 142.013 L 1119.846 142.013 Z " fill="rgb(255,255,255)"/><path d=" M 1234.866 142.013 C 1228.352 138.329 1220.963 136.514 1212.68 136.514 C 1189.349 136.514 1177.685 151.244 1177.685 180.696 L 1177.685 212.834 L 1226.521 212.834 L 1226.521 241.104 L 1177.685 241.104 L 1177.685 421.206 L 1144.293 421.206 L 1144.293 241.1 L 1108.887 241.1 L 1108.887 212.83 L 1144.293 212.83 L 1144.293 179.053 C 1144.293 157.864 1150.536 140.776 1163.021 127.77 C 1175.506 114.734 1191.385 108.224 1210.648 108.224 C 1220.834 108.224 1228.884 109.449 1234.862 111.906 L 1234.866 142.013 L 1234.866 142.013 Z  M 1296.409 138.145 C 1296.409 144.39 1294.242 149.578 1289.899 153.697 C 1285.551 157.845 1280.407 159.896 1274.436 159.896 C 1268.331 159.896 1263.161 157.919 1258.966 153.906 C 1254.767 149.905 1252.656 144.635 1252.656 138.136 C 1252.656 132.3 1254.708 127.246 1258.856 122.981 C 1263.01 118.688 1268.182 116.57 1274.424 116.57 C 1280.647 116.57 1285.881 118.645 1290.096 122.875 C 1294.306 127.07 1296.409 132.154 1296.409 138.145 M 1290.714 421.186 L 1257.327 421.186 L 1257.327 212.806 L 1290.714 212.806 L 1290.714 421.186 Z  M 1481.186 411.643 C 1465.042 421.411 1445.975 426.295 1423.995 426.295 C 1405.017 426.295 1387.951 421.907 1372.815 413.18 C 1357.68 404.412 1345.931 392.038 1337.511 376.016 C 1329.09 360.019 1324.903 342.051 1324.903 322.106 C 1324.903 287.66 1334.761 259.977 1354.498 239.06 C 1374.237 218.185 1400.538 207.721 1433.357 207.721 C 1451.549 207.721 1467.617 211.25 1481.595 218.312 L 1481.595 252.489 C 1465.991 241.643 1449.438 236.22 1431.944 236.22 C 1410.372 236.22 1392.834 243.936 1379.34 259.315 C 1365.836 274.723 1359.078 294.604 1359.078 319.05 C 1359.078 343.355 1365.502 362.515 1378.324 376.642 C 1391.133 390.745 1408.329 397.787 1429.903 397.787 C 1448.083 397.787 1465.18 391.832 1481.19 379.876 L 1481.186 411.643 L 1481.186 411.643 Z  M 1686.242 325.364 L 1539.112 325.364 C 1539.68 348.841 1545.871 366.773 1557.746 379.19 C 1569.608 391.585 1586.047 397.8 1607.067 397.8 C 1630.679 397.8 1652.183 390.206 1671.602 375.016 L 1671.602 406.165 C 1653.422 419.595 1629.268 426.295 1599.151 426.295 C 1569.419 426.295 1546.246 416.692 1529.534 397.496 C 1512.859 378.312 1504.506 351.744 1504.506 317.82 C 1504.506 297.207 1508.692 278.389 1517.042 261.364 C 1525.367 244.342 1536.892 231.159 1551.523 221.785 C 1566.186 212.432 1582.463 207.725 1600.352 207.725 C 1627.346 207.725 1648.409 216.508 1663.545 234.101 C 1678.684 251.651 1686.242 276.243 1686.242 307.861 L 1686.242 325.364 L 1686.242 325.364 Z  M 1652.068 297.069 C 1651.792 277.814 1647.141 262.852 1638.111 252.187 C 1629.095 241.537 1616.378 236.212 1599.97 236.212 C 1584.499 236.212 1571.259 241.781 1560.29 252.895 C 1549.286 264.014 1542.382 278.744 1539.542 297.057 L 1652.068 297.069 Z  M 1940.171 338.581 C 1940.171 364.901 1930.741 386.098 1911.888 402.179 C 1893.035 418.256 1868.254 426.287 1837.609 426.287 C 1809.799 426.287 1787.677 420.989 1771.254 410.422 L 1771.254 374.602 C 1790.946 390.053 1813.458 397.792 1838.807 397.792 C 1859.302 397.792 1875.623 392.723 1887.762 382.628 C 1899.919 372.538 1905.993 358.86 1905.993 341.622 C 1905.993 303.517 1878.837 284.45 1824.589 284.45 L 1800.375 284.45 L 1800.375 256.152 L 1823.36 256.152 C 1871.378 256.152 1895.402 238.244 1895.402 202.423 C 1895.402 169.325 1877.092 152.783 1840.448 152.783 C 1819.838 152.783 1800.501 159.7 1782.466 173.536 L 1782.466 141.185 C 1801.048 130.067 1823.147 124.498 1848.802 124.498 C 1872.957 124.498 1892.448 130.89 1907.308 143.737 C 1922.16 156.557 1929.573 173.358 1929.573 194.09 C 1929.573 232.495 1910.175 257.176 1871.378 268.18 L 1871.378 268.98 C 1891.987 271.292 1908.644 278.736 1921.255 291.37 C 1933.865 303.985 1940.171 319.727 1940.171 338.581 M 2159.733 328.621 C 2159.733 347.08 2155.77 363.822 2147.834 378.875 C 2139.902 393.924 2128.961 405.61 2114.952 413.876 C 2100.986 422.163 2085.327 426.295 2067.954 426.295 C 2038.79 426.295 2015.911 414.561 1999.263 391.093 C 1982.647 367.635 1974.349 334.851 1974.349 292.789 C 1974.349 259.43 1979.276 229.942 1989.114 204.389 C 1998.948 178.809 2012.875 159.113 2030.908 145.285 C 2048.963 131.426 2069.782 124.517 2093.385 124.517 C 2113.471 124.517 2129.606 127.294 2141.836 132.863 L 2141.836 164.413 C 2126.775 156.675 2110.887 152.816 2094.204 152.816 C 2068.427 152.816 2047.786 164.383 2032.245 187.521 C 2016.699 210.644 2008.932 241.478 2008.932 280 L 2009.751 280 C 2023.182 252.446 2045.371 238.681 2076.296 238.681 C 2101.522 238.681 2121.761 246.921 2136.949 263.415 C 2152.154 279.878 2159.733 301.61 2159.733 328.621 M 2125.554 332.886 C 2125.554 312.52 2120.552 296.459 2110.6 284.648 C 2100.628 272.855 2086.682 266.976 2068.774 266.976 C 2052.503 266.976 2038.802 272.69 2027.664 284.163 C 2016.538 295.596 2010.996 309.499 2010.996 325.761 C 2010.996 346.257 2016.513 363.393 2027.57 377.134 C 2038.628 390.923 2052.575 397.795 2069.407 397.795 C 2086.076 397.795 2099.624 391.806 2109.997 379.784 C 2120.364 367.777 2125.554 352.141 2125.554 332.886 M 2356.12 332.066 C 2356.12 360.439 2346.734 383.2 2327.948 400.463 C 2309.158 417.669 2284.078 426.27 2252.739 426.27 C 2225.595 426.27 2205.458 422.222 2192.311 414.081 L 2192.311 378.663 C 2212.103 391.443 2232.385 397.808 2253.141 397.808 C 2273.758 397.808 2290.374 392.025 2302.986 380.494 C 2315.628 368.954 2321.934 353.5 2321.934 334.13 C 2321.934 315.111 2315.535 300.235 2302.809 289.44 C 2290.048 278.665 2271.533 273.277 2247.257 273.277 C 2227.844 273.277 2211.366 274.072 2197.797 275.691 L 2207.758 129.385 L 2342.69 129.385 L 2342.69 159.499 L 2236.663 159.499 L 2230.766 245.171 L 2257.627 244.136 C 2288.019 244.136 2312.033 251.829 2329.665 267.156 C 2347.294 282.481 2356.121 304.135 2356.121 332.066 M 549.943 477.833 L 549.9 477.809 L 549.9 73.408 L 405.007 31.601 L 144.533 129.405 L 143.88 129.531 L 143.911 421.942 L 232.798 387.154 L 232.798 149.244 L 405.007 108.07 L 404.983 457.861 L 144.057 421.942 L 404.983 518.293 L 404.983 518.399 L 549.9 478.294 L 549.9 477.833 L 549.943 477.833 L 549.943 477.833 Z " fill="rgb(255,255,255)"/></g></g></svg>