<?xml version="1.0" encoding="UTF-8" standalone="no"?><!-- Generator: Gravit.io --><svg xmlns="http://www.w3.org/2000/svg" xmlns:xlink="http://www.w3.org/1999/xlink" style="isolation:isolate" viewBox="0 0 8224 1746" width="8224pt" height="1746pt"><defs><clipPath id="_clipPath_5R4CcQFAPKSdGvqzuLP7kllEoqhLIuWf"><rect width="8224" height="1746"/></clipPath></defs><g clip-path="url(#_clipPath_5R4CcQFAPKSdGvqzuLP7kllEoqhLIuWf)"><rect x="7311.9" y="453.7" width="184.7" height="109.1" transform="matrix(1,0,0,1,0,0)" fill="rgb(255,255,255)"/><path d=" M 2486.6 1116.9 C 2445.3 1062.3 2424.8 976.1 2424.8 858.5 C 2424.8 750 2446 669 2488.5 615.4 C 2531 561.9 2595.2 535.1 2681.1 535.1 C 2768.3 535.1 2832.9 562.1 2875 616.2 C 2917.1 670.2 2938.1 753.8 2938.1 867 C 2938.1 979.9 2917 1063.5 2875 1117.6 C 2832.9 1172 2768.3 1199 2681.1 1199 C 2592.6 1199 2527.8 1171.8 2486.6 1116.9 M 2323.1 491.6 C 2244.8 571.7 2205.6 693.5 2205.6 857.4 C 2205.6 1031.6 2244 1159.6 2320.9 1241 C 2397.8 1322.8 2517.8 1363.6 2681.1 1363.6 C 2842.7 1363.6 2962.2 1322.9 3039.7 1241.7 C 3117.3 1160.5 3156.1 1035.6 3156.1 866.9 C 3156.1 698.4 3117.3 573.7 3039.7 492.8 C 2962.2 412 2842.7 371.6 2681.1 371.6 C 2520.8 371.7 2401.5 411.7 2323.1 491.6 M 3460.8 795.1 L 3587.9 795.1 C 3658.4 795.1 3707.8 809.6 3736.4 838.9 C 3764.9 868.1 3779.2 918.2 3779.2 989.1 C 3779.2 1062.5 3763.6 1115.2 3732.5 1146.7 C 3701.4 1178.2 3648.5 1194 3573.6 1194 L 3460.8 1194 L 3460.8 795.1 L 3460.8 795.1 Z  M 3276 644 L 3276 1597.1 L 3460.8 1597.1 L 3460.8 1343.5 L 3619.6 1343.5 C 3689.6 1343.5 3745.8 1335.2 3788.2 1318.5 C 3830.5 1301.9 3866.9 1274.3 3897.1 1236 C 3922.6 1204 3941.6 1168.6 3954.2 1130 C 3966.7 1091.4 3972.9 1048.8 3972.9 1002.6 C 3972.9 889.7 3942.8 801.7 3882.8 738.6 C 3822.7 675.4 3739 644 3631.9 644 L 3276 644 L 3276 644 Z  M 4310.1 644 C 4225.8 644 4163.5 661.7 4123.4 697.2 C 4083.2 732.7 4063.1 788 4063.1 863.3 C 4063.1 937.2 4079.8 988.5 4113 1017.5 C 4146.3 1046.4 4210.3 1060.8 4304.9 1060.8 L 4464.4 1060.8 C 4498.6 1060.8 4523.6 1066.4 4539.6 1077.4 C 4555.6 1088.5 4563.5 1105.9 4563.5 1129.6 C 4563.5 1153.5 4555.6 1170.8 4539.9 1181.6 C 4524.1 1192.3 4498.9 1197.9 4464.3 1197.9 L 4074.6 1197.9 L 4074.6 1343.5 L 4552 1343.5 C 4608.1 1343.5 4654.1 1323.2 4689.7 1282.5 C 4725.4 1242 4743.2 1189.3 4743.2 1124.5 C 4743.2 1057.1 4723.1 1005.5 4683 969.9 C 4642.8 934.2 4584.4 916.4 4507.9 916.4 L 4340.6 916.4 C 4310.4 916.4 4288.2 911.4 4274.1 901.2 C 4260.1 891 4253.1 875.1 4253.1 853.5 C 4253.1 829.8 4261.1 813.3 4277.2 803.9 C 4293.1 794.6 4327.7 789.9 4380.9 789.9 L 4707 789.9 L 4707 644 L 4310.1 644 L 4310.1 644 L 4310.1 644 Z  M 5282.6 390.5 C 5129.5 390.5 5016.4 430.7 4943.2 511.1 C 4870 591.5 4833.3 715.8 4833.3 884 C 4833.3 970.8 4845.5 1045.6 4870 1108 C 4894.4 1170.5 4931 1221.1 4979.8 1260 C 5017 1289.8 5056.9 1311.2 5099.4 1324.2 C 5141.9 1337.2 5203.1 1343.5 5282.6 1343.5 L 5713.8 1343.5 L 5713.8 778.1 L 5239.8 778.1 L 5239.8 946.8 L 5508.2 946.8 L 5508.2 1171.2 L 5282.6 1171.2 C 5203.6 1171.2 5146 1147.8 5110.1 1101.2 C 5074.2 1054.6 5056.3 979.1 5056.3 874.9 C 5056.3 763.4 5074.3 682.1 5110.5 631.2 C 5146.6 580.2 5204 554.6 5282.6 554.6 L 5713.8 554.6 L 5713.8 390.6 L 5282.6 390.6 L 5282.6 390.5 L 5282.6 390.5 Z  M 6172.2 644 C 6056.9 644 5969.2 673.6 5909.5 732.8 C 5849.9 792 5820.1 879.1 5820.1 994.2 C 5820.1 1109.2 5849.7 1196.1 5909.1 1255.1 C 5968.5 1314 6056.3 1343.5 6172.1 1343.5 L 6441.8 1343.5 L 6441.8 1197.9 L 6196 1197.9 C 6126.4 1197.9 6080.9 1188.7 6059.6 1170.2 C 6038.2 1151.7 6026.6 1117.4 6024.9 1067.4 L 6441.8 1067.4 L 6441.8 921.5 L 6025 921.5 C 6026.7 871.7 6039.1 837.4 6062.3 818.4 C 6085.5 799.2 6130.5 789.8 6197.5 789.8 L 6441.9 789.8 L 6441.9 644 L 6172.2 644 L 6172.2 644 Z  M 6560 644 L 6560 1343.5 L 6744.7 1343.5 L 6744.7 797.7 L 6893.2 797.7 C 6942.1 797.7 6974.6 805.4 6990.8 821 C 7006.9 836.6 7015.1 870.4 7015.1 922.9 L 7015.1 1343.5 L 7199.9 1343.5 L 7199.9 900.1 C 7199.9 808.4 7177.3 742.8 7132.4 703.3 C 7087.4 663.7 7012.4 644 6907.4 644 L 6560 644 L 6560 644 Z " fill="rgb(255,255,255)"/><rect x="7311.9" y="644" width="184.7" height="699.5" transform="matrix(1,0,0,1,0,0)" fill="rgb(255,255,255)"/><path d=" M 7953.8 644 C 7838.4 644 7750.8 673.6 7691.2 732.8 C 7631.6 792 7601.8 879.1 7601.8 994.2 C 7601.8 1109.2 7631.5 1196.1 7691 1255.1 C 7750.3 1314 7838.1 1343.5 7953.9 1343.5 L 8223.6 1343.5 L 8223.6 1197.9 L 7977.9 1197.9 C 7908.3 1197.9 7862.9 1188.7 7841.4 1170.2 C 7820.1 1151.7 7808.5 1117.4 7806.7 1067.4 L 8223.6 1067.4 L 8223.6 921.5 L 7806.7 921.5 C 7808.5 871.7 7820.8 837.4 7844.1 818.4 C 7867.2 799.2 7912.3 789.8 7979.2 789.8 L 8223.7 789.8 L 8223.7 644 L 7953.8 644 L 7953.8 644 Z " fill="rgb(255,255,255)"/><g><path d=" M 1200.4 417.2 C 1210.1 620.1 1046.8 714.7 1046.8 714.7 C 1055.1 530.2 919.8 438.4 884.7 434.2 C 1123.9 462.6 1069.3 647.9 1069.3 647.9 C 1150.9 544.3 1144.4 451.6 1143.1 417 C 1133.8 301.6 1071.8 219.4 926.8 169.6 C 926.9 169.7 1189.5 188.4 1200.4 417.2 L 1200.4 417.2 L 1200.4 417.2 L 1200.4 417.2 L 1200.4 417.2 Z  M 847.8 145 C 886.6 94.7 879.1 76 879.1 76 C 903.3 105.2 910.7 128.3 884.9 164.7 C 859.1 201 887.9 240.3 887.9 240.3 C 869.7 235.3 808 208 847.8 145 L 847.8 145 L 847.8 145 L 847.8 145 L 847.8 145 Z  M 861.8 271.8 L 862.7 271.8 C 888.6 272.1 908.8 307.6 908.1 350.8 C 907.2 394.1 885.7 428.7 859.7 428.3 C 833.8 427.9 813.6 392.6 814.3 349.3 C 815 306.7 836.2 272.2 861.8 271.8 L 861.8 271.8 L 861.8 271.8 Z  M 820.9 838.7 C 819.2 837.7 624.7 682 756.6 455 C 756.6 455 658.3 536.3 662.2 640.4 C 586.7 539.9 592.7 450.8 593.9 417.1 C 603.2 301.7 665.2 219.5 810.2 169.7 C 810.2 169.7 547.6 188.4 536.7 417.2 C 529 579.5 631.8 665.3 673.3 693.1 C 691.8 740.7 735.5 790.8 820.9 838.7 L 820.9 838.7 L 820.9 838.7 L 820.9 838.7 Z  M 285.6 1354.6 C 209 1232.8 112.6 1021.2 403 991.5 C 620.4 969.2 720.7 879.9 732.4 856.6 C 676.8 1021.6 460.5 1013.8 337.7 1072.9 C 227.9 1125.7 285.6 1354.6 285.6 1354.6 L 285.6 1354.6 L 285.6 1354.6 L 285.6 1354.6 Z  M 872.8 0 C 390.8 0 0 390.8 0 872.8 C 0 1354.9 390.8 1745.6 872.8 1745.6 C 1354.9 1745.6 1745.6 1354.8 1745.6 872.8 C 1745.7 390.8 1354.9 0 872.8 0 L 872.8 0 L 872.8 0 Z  M 407.8 1282.6 C 426.8 1181.3 513.8 1150 591 1150 C 671.6 1150 741.9 1183.7 741.9 1183.7 C 499.4 1150.1 407.8 1282.6 407.8 1282.6 L 407.8 1282.6 L 407.8 1282.6 Z  M 614.4 1590.6 L 529.7 1555.6 C 529.7 1555.6 714.5 1529.7 876.8 1398.1 C 876.8 1398.1 792.7 1551.4 614.4 1590.6 L 614.4 1590.6 Z  M 542.4 1332.4 C 607.5 1252.1 735.4 1197.5 882.6 1197.5 C 1026.1 1197.5 1151.3 1249.4 1217.8 1326.5 C 1132.2 1275.8 1014.7 1244.5 884.9 1244.5 C 750.2 1244.4 628.7 1278.2 542.4 1332.4 L 542.4 1332.4 Z  M 1146.7 1589.3 C 968.4 1550.1 889.6 1398.1 889.6 1398.1 C 1051.9 1529.7 1227.9 1555.6 1227.9 1555.6 L 1146.7 1589.3 L 1146.7 1589.3 L 1146.7 1589.3 Z  M 1466.5 1354.6 C 1466.5 1354.6 1524.2 1125.8 1414.4 1072.9 C 1291.7 1013.8 1075.3 1021.7 1019.7 856.6 C 1031.4 879.9 1131.7 969.2 1349.1 991.5 C 1639.4 1021.2 1543 1232.8 1466.5 1354.6 L 1466.5 1354.6 L 1466.5 1354.6 Z " fill-rule="evenodd" fill="rgb(255,255,255)"/></g></g></svg>