<?xml version="1.0" encoding="UTF-8" standalone="no"?><!-- Generator: Gravit.io --><svg xmlns="http://www.w3.org/2000/svg" xmlns:xlink="http://www.w3.org/1999/xlink" style="isolation:isolate" viewBox="0 0 280 95" width="280pt" height="95pt"><defs><clipPath id="_clipPath_9axukiEe4rOFxXyLDlu8Vz6OKc4R2vgp"><rect width="280" height="95"/></clipPath></defs><g clip-path="url(#_clipPath_9axukiEe4rOFxXyLDlu8Vz6OKc4R2vgp)"><path d=" M 140.038 94.771 L 142.213 94.771 L 142.213 84.508 C 142.9 85.386 150.53 94.771 150.53 94.771 L 153.353 94.771 L 153.353 80.769 L 151.255 80.769 L 151.255 91.032 C 150.568 90.155 142.633 80.769 142.633 80.769 L 140.038 80.769 L 140.038 94.771 L 140.038 94.771 Z " fill="rgb(255,255,255)"/><path d=" M 156.52 94.847 L 167.584 94.847 L 167.584 92.673 L 158.733 92.673 L 158.733 88.819 L 167.012 88.819 L 167.012 86.683 L 158.733 86.683 L 158.733 82.829 L 167.699 82.829 L 167.699 80.769 L 156.558 80.769 L 156.52 94.847 L 156.52 94.847 Z " fill="rgb(255,255,255)"/><path d=" M 169.378 82.829 L 174.643 82.829 C 174.643 83.287 174.604 94.847 174.604 94.847 L 176.741 94.847 L 176.741 82.829 L 181.968 82.829 L 181.968 80.769 L 169.378 80.769 L 169.378 82.829 L 169.378 82.829 Z " fill="rgb(255,255,255)"/><path d=" M 188.339 94.771 L 190.819 94.771 C 190.819 94.771 193.91 85.118 194.291 84.012 C 194.635 85.118 197.763 94.733 197.763 94.733 L 200.205 94.733 L 204.783 80.807 L 202.303 80.807 C 202.303 80.807 199.442 90.04 199.098 91.185 C 198.717 90.04 195.665 80.807 195.665 80.807 L 193.032 80.807 C 193.032 80.807 190.056 90.04 189.713 91.185 C 189.331 90.04 186.508 80.769 186.508 80.769 L 183.914 80.769 L 188.339 94.771 L 188.339 94.771 Z " fill="rgb(255,255,255)"/><path d=" M 210.849 91.376 C 209.972 90.498 209.705 89.239 209.705 87.713 L 209.743 87.713 C 209.743 86.187 209.972 84.966 210.849 84.088 C 211.727 83.135 213.062 82.639 214.627 82.639 C 217.755 82.677 219.701 84.584 219.701 87.713 C 219.701 90.841 217.755 92.596 214.627 92.596 C 213.024 92.596 211.727 92.291 210.849 91.376 Z  M 214.627 80.464 C 212.261 80.464 210.392 81.151 209.056 82.524 C 207.797 83.783 207.11 85.653 207.11 87.713 C 207.11 89.773 207.797 91.643 209.056 92.94 C 210.392 94.275 212.261 95 214.627 95 C 220.159 95 222.143 91.07 222.143 87.713 C 222.181 84.355 220.159 80.464 214.627 80.464 Z " fill="rgb(255,255,255)"/><path d=" M 227.026 82.867 L 232.444 82.867 C 233.779 82.867 234.504 83.669 234.504 84.89 C 234.504 85.614 234.237 86.797 232.367 86.797 C 232.367 86.797 227.446 86.759 227.026 86.759 L 227.026 82.982 L 227.026 82.867 L 227.026 82.867 Z  M 224.851 94.809 L 227.064 94.809 L 227.064 88.857 L 232.024 88.857 C 233.398 88.857 234.199 89.468 234.313 91.871 L 234.351 92.329 C 234.428 93.665 234.428 94.161 234.771 94.58 L 234.847 94.733 L 237.518 94.733 L 237.175 94.275 C 236.793 93.779 236.717 93.169 236.602 90.765 C 236.526 89.277 235.954 88.285 235 87.904 C 236.183 87.293 236.908 86.149 236.908 84.584 C 236.908 82.867 235.916 80.807 233.092 80.807 L 224.851 80.807 L 224.851 94.809 L 224.851 94.809 Z " fill="rgb(255,255,255)"/><path d=" M 240.647 94.809 L 242.745 94.809 L 242.745 90.155 C 242.859 90.04 244.576 88.514 244.843 88.247 C 245.149 88.59 250.108 94.809 250.108 94.809 L 253.39 94.809 C 253.39 94.809 246.942 86.95 246.675 86.606 C 247.018 86.301 253.161 80.807 253.161 80.807 L 249.727 80.807 C 249.727 80.807 243.432 86.606 242.745 87.217 L 242.745 80.807 L 240.647 80.807 L 240.647 94.809 L 240.647 94.809 Z " fill="rgb(255,255,255)"/><path d=" M 256.556 84.775 C 256.556 87.827 259.608 88.361 260.639 88.514 L 263.576 89.01 C 265.179 89.315 265.827 89.811 265.827 90.765 C 265.827 91.223 265.675 91.604 265.369 91.91 C 264.797 92.482 263.805 92.787 262.508 92.787 C 261.058 92.787 258.578 92.444 258.54 90.04 L 258.54 89.773 L 256.137 89.773 L 256.137 90.04 C 256.137 91.414 256.556 92.52 257.357 93.359 C 258.693 94.695 260.829 95 262.394 95 C 263.576 95 265.751 94.809 267.086 93.436 C 267.849 92.635 268.231 91.643 268.231 90.384 C 268.231 87.484 265.141 86.912 264.149 86.721 C 264.11 86.721 260.906 86.149 260.906 86.149 C 259.151 85.843 258.96 85.157 258.96 84.622 C 258.96 84.165 259.112 83.783 259.418 83.478 C 259.914 82.982 260.791 82.677 261.745 82.677 C 264.721 82.677 265.255 83.974 265.408 84.966 L 265.446 85.157 L 267.811 85.157 L 267.811 84.89 C 267.659 82.104 265.522 80.464 262.012 80.464 C 258.655 80.464 256.556 82.104 256.556 84.775 Z " fill="rgb(255,255,255)"/><path d=" M 17.301 55.398 C 9.594 55.398 9.213 48.645 9.213 40.938 C 9.213 33.231 9.594 26.554 17.301 26.554 C 24.97 26.554 26.038 33.231 26.038 40.938 C 26.038 48.645 24.97 55.398 17.301 55.398 Z  M 29.815 22.624 C 27.488 20.259 23.711 18.771 19.476 18.771 C 14.859 18.771 11.578 19.992 8.412 23.922 L 8.412 21.365 C 7.458 20.068 5.779 19.229 4.1 19.229 C 2.384 19.229 1.239 20.068 0.285 21.365 L 0.285 79.815 L 9.213 79.815 L 9.213 58.221 C 12.303 61.96 15.05 63.181 19.552 63.181 C 23.787 63.181 27.488 61.731 29.815 59.327 C 34.05 54.978 34.508 47.5 34.508 40.938 C 34.508 34.337 34.05 27.012 29.815 22.624 Z " fill="rgb(255,255,255)"/><path d=" M 66.518 43.799 L 56.904 43.799 C 51.906 43.799 49.311 45.707 49.311 49.637 C 49.311 53.604 51.753 55.817 57.094 55.817 C 60.337 55.817 62.779 55.55 65.03 53.337 C 66.251 52.04 66.518 49.98 66.518 46.928 L 66.518 43.799 L 66.518 43.799 Z  M 67.129 62.57 L 67.129 58.641 C 64.038 61.807 61.024 63.066 55.759 63.066 C 50.494 63.066 46.984 61.807 44.39 59.137 C 42.215 56.847 41.07 53.49 41.07 49.827 C 41.07 42.54 45.992 37.161 55.683 37.161 L 66.556 37.161 L 66.556 34.261 C 66.556 28.805 64.191 26.135 57.59 26.135 C 52.898 26.135 50.647 27.241 48.319 30.331 L 42.749 24.952 C 46.755 20.145 50.914 18.618 57.934 18.618 C 69.532 18.618 75.369 23.731 75.369 33.574 L 75.369 62.57 L 67.129 62.57 L 67.129 62.57 Z " fill="rgb(255,255,255)"/><path d=" M 95.743 55.131 C 92.309 55.131 91.127 53.91 91.127 50.552 L 91.127 2.175 C 90.135 0.839 88.608 0 86.853 0 C 85.137 0 83.229 0.839 82.237 2.175 L 82.237 51.086 C 82.237 57.496 86.129 62.608 94.217 62.608 L 99.406 62.608 L 99.406 55.131 L 95.743 55.131 L 95.743 55.131 Z " fill="rgb(255,255,255)"/><path d=" M 127.41 29.568 C 125.807 27.928 123.671 27.088 121.153 27.088 C 118.635 27.088 116.574 27.928 114.972 29.568 C 112.378 32.201 112.378 36.741 112.378 41.434 C 112.378 46.165 112.378 50.705 114.972 53.337 C 116.574 54.94 118.635 55.894 121.153 55.894 C 123.671 55.894 125.807 54.94 127.41 53.337 C 130.004 50.705 129.928 46.165 129.928 41.434 C 129.928 36.741 130.004 32.201 127.41 29.568 Z  M 133.819 58.564 C 131.072 61.464 126.914 63.677 121.153 63.677 C 115.392 63.677 111.309 61.464 108.562 58.564 C 104.556 54.291 103.526 48.797 103.526 41.434 C 103.526 34.185 104.556 28.691 108.562 24.418 C 111.309 21.518 115.392 19.305 121.153 19.305 C 126.914 19.305 131.072 21.518 133.819 24.418 C 137.825 28.691 138.855 34.185 138.855 41.434 C 138.855 48.797 137.825 54.291 133.819 58.564 Z " fill="rgb(255,255,255)"/><path d=" M 198.908 55.131 C 195.512 55.131 194.787 54.024 194.787 50.705 L 194.749 2.327 C 193.795 0.992 191.811 0.153 190.056 0.153 C 188.301 0.153 186.813 0.992 185.821 2.327 L 185.821 51.239 C 185.821 57.649 189.331 62.57 197.42 62.57 L 202.303 62.57 L 202.303 55.131 L 198.908 55.131 L 198.908 55.131 Z " fill="rgb(255,255,255)"/><path d=" M 169.339 43.761 L 160.412 43.761 C 155.414 43.761 152.819 45.478 152.819 49.446 C 152.819 53.376 155.223 55.588 160.564 55.588 C 163.845 55.588 166.249 55.321 168.5 53.108 C 169.759 51.811 169.339 49.789 169.339 46.699 L 169.339 43.761 L 169.339 43.761 Z  M 170.141 62.456 L 170.141 58.412 C 167.05 61.578 164.494 63.028 159.229 63.028 C 153.964 63.028 150.492 61.578 147.898 58.908 C 145.723 56.618 144.54 53.108 144.54 49.446 C 144.54 42.159 149.462 37.161 159.153 37.161 L 169.416 37.161 L 169.416 34.032 C 169.416 28.576 167.661 25.906 161.06 25.906 C 156.406 25.906 154.155 27.012 151.827 30.102 L 146.219 24.723 C 150.225 19.916 154.384 18.466 161.404 18.466 C 173.002 18.466 178.878 23.54 178.878 33.345 L 178.878 62.456 L 170.141 62.456 L 170.141 62.456 Z " fill="rgb(255,255,255)"/><path d=" M 227.026 27.241 L 227.026 19.801 L 218.785 19.801 L 218.785 7.058 C 217.793 5.761 215.733 4.884 213.978 4.884 C 212.223 4.884 210.811 5.723 209.819 7.058 L 209.819 19.801 L 204.592 19.801 L 204.592 27.241 L 209.819 27.241 L 209.819 50.705 C 209.819 56.962 213.406 62.532 221.341 62.532 L 226.301 62.532 L 226.301 55.131 L 222.944 55.131 C 219.777 55.131 218.785 53.452 218.785 50.285 L 218.785 27.241 L 227.026 27.241 L 227.026 27.241 Z " fill="rgb(255,255,255)"/><path d=" M 254.534 29.53 C 252.932 27.928 250.757 27.05 248.277 27.05 C 245.759 27.05 243.661 27.928 242.096 29.53 C 239.502 32.201 239.311 36.741 239.311 41.434 C 239.311 46.127 239.502 50.667 242.096 53.337 C 243.661 54.94 245.759 55.894 248.277 55.894 C 250.757 55.894 252.932 54.94 254.534 53.337 C 257.09 50.667 257.701 46.127 257.701 41.396 C 257.701 36.703 257.09 32.201 254.534 29.53 L 254.534 29.53 Z  M 260.944 58.526 C 258.197 61.426 254.038 63.677 248.277 63.677 C 242.516 63.677 238.396 61.426 235.649 58.526 C 231.643 54.253 230.422 48.797 230.422 41.434 C 230.422 34.147 231.643 28.691 235.649 24.418 C 238.396 21.518 242.516 19.267 248.277 19.267 C 254.038 19.267 258.197 21.518 260.944 24.418 C 264.95 28.691 265.789 34.147 265.789 41.434 C 265.789 48.797 264.95 54.253 260.944 58.526 L 260.944 58.526 Z " fill="rgb(255,255,255)"/><path d=" M 275.747 83.402 L 274.908 83.402 L 274.908 84.851 L 275.747 84.851 C 276.243 84.851 276.586 84.546 276.586 84.05 C 276.586 83.592 276.243 83.363 275.747 83.363 L 275.747 83.402 L 275.747 83.402 Z  M 276.624 87.293 L 275.594 85.576 L 274.984 85.576 L 274.984 87.369 L 274.297 87.369 L 274.297 82.6 L 275.823 82.6 C 276.586 82.6 277.235 83.287 277.235 84.05 C 277.235 84.737 276.853 85.157 276.281 85.309 L 277.349 87.293 L 276.624 87.293 L 276.624 87.293 Z  M 275.633 81.418 C 273.725 81.418 272.199 83.02 272.199 85.004 C 272.199 86.95 273.725 88.552 275.633 88.552 C 277.54 88.552 279.066 86.95 279.066 85.004 C 279.066 83.02 277.54 81.418 275.633 81.418 Z  M 275.633 89.201 C 273.382 89.201 271.55 87.293 271.55 85.004 C 271.55 82.677 273.382 80.807 275.633 80.807 C 277.884 80.807 279.715 82.677 279.715 85.004 C 279.715 87.293 277.884 89.201 275.633 89.201 Z " fill="rgb(255,255,255)"/></g></svg>