<?xml version="1.0" encoding="UTF-8" standalone="no"?><!-- Generator: Gravit.io --><svg xmlns="http://www.w3.org/2000/svg" xmlns:xlink="http://www.w3.org/1999/xlink" style="isolation:isolate" viewBox="0 0 2500 749" width="2500pt" height="749pt"><defs><clipPath id="_clipPath_p6RKCNkgXgUG9w0mfglIFUEJdqJEM4az"><rect width="2500" height="749"/></clipPath></defs><g clip-path="url(#_clipPath_p6RKCNkgXgUG9w0mfglIFUEJdqJEM4az)"><path d=" M 923.536 301.703 C 923.536 234.588 972.471 187.723 1061.401 187.723 C 1115.662 187.723 1160.063 205.048 1184.117 222.019 C 1187.56 224.442 1193.702 230.322 1190.02 241.255 C 1185.3 253.032 1176.645 270.741 1170.434 282.245 C 1166.82 288.949 1157.59 288.066 1152.861 285.67 C 1135.727 276.987 1107.622 262.299 1081.804 259.589 C 1075.268 258.878 1068.69 258.594 1062.116 258.738 C 1039.379 259.245 1020.383 267.14 1013.693 284.487 C 1012.382 287.77 1011.651 291.255 1011.532 294.787 C 1010.908 317.647 1042.721 325.913 1081.261 332.534 C 1152.91 344.808 1207.117 365.815 1207.117 439.562 C 1207.117 502.189 1157.345 558.788 1059.824 557.054 C 995.535 555.753 949.925 534.03 925.485 512.951 C 924.651 512.236 915.348 502.76 920.334 491.365 C 926.041 476.695 935.675 459.881 943.235 450.954 C 947.438 445.221 958.53 444.309 964.296 447.883 C 984.442 460.402 1017.597 480.476 1055.815 481.807 C 1058.832 481.912 1061.821 481.93 1064.756 481.853 C 1099.134 481.019 1119.932 467.984 1119.498 446.026 C 1119.127 426.682 1091.869 415.381 1048.465 407.201 C 979.238 394.161 923.546 371.342 923.546 301.703 M 1552.448 397.268 C 1503.63 397.907 1458.871 411.251 1457.581 449.401 C 1457.567 479.674 1482.126 494.545 1516.593 492.598 C 1549.657 489.413 1574.872 475.073 1585.983 456.045 C 1590.091 448.993 1590.715 422.604 1590.466 411.328 C 1590.403 408.926 1585.657 404.384 1583.578 403.51 C 1573.205 399.139 1565.528 397.788 1552.443 397.259 M 1390.012 243.543 C 1412.84 223.115 1458.102 191.319 1530.236 192.995 C 1625.428 194.975 1675.717 239.603 1680.401 346.358 C 1682.33 390.384 1679.132 513.183 1678.371 543.778 C 1678.259 548.167 1676.774 551.202 1670.858 551.315 C 1655.182 551.945 1618.965 551.695 1602.324 551.478 C 1593.927 551.071 1592.953 546.903 1592.844 542.542 C 1592.772 539.688 1592.527 531.228 1592.35 524.329 C 1592.256 520.67 1588.818 520.774 1587.94 521.712 C 1565.61 545.554 1529.04 557.067 1490.15 557.067 C 1431.043 557.067 1372.117 522.296 1372.298 453.436 C 1372.479 382.914 1422.483 348.129 1477.415 339.926 C 1512.589 334.691 1552.239 339.346 1582.264 351.277 C 1584.185 352.047 1588.107 350.932 1588.139 348.21 C 1588.26 339.225 1587.826 322.099 1586.1 313.982 C 1581.693 293.302 1564.441 276.661 1528.198 272.177 C 1520.734 271.257 1513.219 270.954 1505.696 271.551 C 1476.884 273.817 1442.213 296.282 1427.854 304.692 C 1424.477 306.668 1419.186 305.223 1417.473 303.017 C 1409.095 292.192 1388.033 260.532 1386.375 255.473 C 1384.717 250.427 1387.054 246.179 1390.002 243.525 L 1390.012 243.543 L 1390.012 243.543 Z  M 1711.789 374.82 C 1711.224 276.466 1779.751 193.494 1891.028 192.764 C 1960.464 192.311 2010.906 223.791 2019.803 238.638 C 2021.609 242.125 2020.68 245.038 2019.43 248.548 C 2013.551 260.958 1998.704 284.936 1988.124 298.524 C 1983.617 304.312 1978.725 299.353 1973.041 295.571 C 1957.265 285.063 1927.291 272.213 1897.791 272.213 C 1844.272 272.222 1804.418 308.918 1804.862 376.434 C 1805.279 441.22 1843.452 476.825 1897.976 478.116 C 1926.479 478.832 1954.095 462.449 1968.951 449.029 C 1973.616 444.957 1978.445 446.996 1983.776 451.163 C 1994.238 461.857 2009.244 478.365 2017.564 489.73 C 2023.013 496.043 2018.937 502.222 2016.976 504.703 C 1994.4 533.269 1950.802 557.312 1893.103 557.638 C 1772.287 558.484 1712.355 473.538 1711.798 374.834 M 2288.496 553.204 C 2294.166 552.778 2354.682 544.426 2373.257 540.173 C 2377.868 539.122 2379.508 535.245 2376.93 531.405 C 2366.559 515.85 2339.287 471.68 2310.725 432.139 C 2284.454 395.782 2256.768 363.805 2247.812 351.504 C 2245.63 348.515 2245.747 345.57 2248.126 343.251 C 2265.16 326.584 2336.416 256.719 2363.206 227.867 C 2373.579 216.644 2367.351 211.815 2358.541 209.192 C 2341.524 204.119 2314 197.796 2298.346 194.495 C 2291.747 193.099 2283.798 193.588 2278.028 199.522 C 2251.241 224.501 2169.492 306.55 2145.088 331.076 C 2140.694 335.501 2138.134 334.519 2138.112 328.196 C 2137.913 280.91 2136.98 78.458 2135.29 45.158 C 2135.173 40.755 2129.878 37.413 2126.893 37.255 C 2111.548 36.453 2072.781 36.222 2057.504 37.118 C 2053.223 37.603 2049.134 41.965 2048.762 45.651 C 2045.239 98.898 2050.257 489.771 2052.35 544.448 C 2052.498 548.402 2055.443 551.469 2059.198 551.692 C 2074.439 552.574 2112.137 552.516 2129.738 552.185 C 2138.398 552.185 2139.458 546.097 2139.458 546.097 L 2140.762 441.211 C 2140.762 441.211 2141.655 436.546 2143.099 435.007 C 2149.305 428.325 2166.47 409.927 2173.789 402.816 C 2175.547 401.109 2178.32 401.23 2180.112 403.645 C 2188.809 415.376 2213.607 453.513 2236.593 487.574 C 2257.714 518.862 2277.431 546.632 2278.807 548.593 C 2281.986 553.122 2285.7 553.303 2288.5 553.217 L 2288.5 553.204 L 2288.496 553.204 L 2288.496 553.204 Z  M 1259.284 552.841 C 1264.606 553.018 1304.985 552.972 1322.875 552.95 C 1328.9 553.068 1332.03 548.507 1332.229 544.48 C 1336.029 467.816 1334.404 102.816 1332.003 45.18 C 1331.803 40.198 1329.669 38.328 1326.268 37.875 C 1310.913 35.818 1267.278 36.299 1253.291 39.958 C 1250.556 40.669 1248.944 42.748 1248.857 45.42 C 1245.433 193.983 1247.744 536.49 1248.468 542.976 C 1249.189 549.472 1252.586 552.615 1259.294 552.841 L 1259.284 552.841 Z " fill="rgb(255,255,255)"/><path d=" M 178.616 400.411 C 153.733 400.602 132.652 385.772 124.88 362.627 C 124.591 361.754 124.323 360.873 124.073 359.987 C 115.604 330.347 132.028 299.339 161.463 289.412 L 633.601 131.233 C 639.206 129.611 645.008 128.764 650.843 128.714 C 676.389 128.516 698.048 143.671 706.011 167.305 L 706.717 169.587 C 715.549 200.459 693.605 228.016 667.312 236.848 C 667.295 236.861 662.511 238.478 197.793 397.146 C 191.617 399.252 185.142 400.354 178.616 400.411 L 178.616 400.411 Z " fill="rgb(255,255,255)"/><path d=" M 257.314 632.607 C 232.234 632.789 211.081 618.168 203.401 595.353 C 203.109 594.486 202.837 593.611 202.586 592.732 C 193.997 562.738 210.403 531.405 239.939 521.462 L 712.094 361.835 C 718.194 359.796 724.495 358.756 730.832 358.696 C 755.978 358.506 778.073 373.869 785.868 396.942 L 786.592 399.342 C 791.153 415.29 788.458 433.212 779.391 447.357 C 772.633 457.875 751.318 467.132 751.318 467.132 L 277.369 629.187 C 270.905 631.377 264.137 632.533 257.314 632.617 L 257.314 632.607 L 257.314 632.607 Z " fill="rgb(255,255,255)"/><path d=" M 650.35 633.617 C 625.31 633.858 602.816 617.846 594.843 594.108 L 437.268 126.048 L 436.479 123.42 C 427.942 93.573 444.361 62.437 473.788 52.518 C 479.675 50.538 485.763 49.506 491.891 49.452 C 500.996 49.384 509.805 51.435 518.103 55.535 C 531.902 62.358 542.423 74.418 547.312 89.015 L 704.875 557.036 L 705.331 558.539 C 714.182 589.529 697.8 620.682 668.373 630.601 C 662.56 632.543 656.478 633.56 650.35 633.617 L 650.35 633.617 Z " fill="rgb(255,255,255)"/><path d=" M 416.125 712.455 C 391.07 712.693 368.565 696.668 360.595 672.913 L 203.061 204.871 C 201.04 198.892 200.008 192.621 200.008 186.31 C 200.008 161.469 215.977 139.264 239.526 131.359 C 245.348 129.414 251.438 128.394 257.576 128.334 C 282.62 128.088 305.121 144.101 313.091 167.844 L 470.631 635.905 C 472.652 641.884 473.684 648.154 473.684 654.466 C 473.684 679.323 457.695 701.537 434.124 709.429 C 428.314 711.377 422.234 712.396 416.107 712.45 L 416.125 712.45 L 416.125 712.455 L 416.125 712.455 Z " fill="rgb(255,255,255)"/><path d=" M 572.667 528.211 L 682.539 490.645 L 646.622 383.979 L 536.624 421.151 L 572.667 528.211 Z " fill="rgb(255,255,255)"/><path d=" M 338.804 608.172 L 448.667 570.609 L 412.479 463.129 L 302.507 500.314 L 338.804 608.172 L 338.804 608.172 Z " fill="rgb(255,255,255)"/><path d=" M 494.446 295.874 L 604.328 258.357 L 568.831 152.938 L 458.746 189.821 L 494.446 295.874 L 494.446 295.874 Z " fill="rgb(255,255,255)"/><path d=" M 260.556 375.726 L 370.438 338.209 L 334.506 231.444 L 224.421 268.322 L 260.556 375.726 L 260.556 375.726 Z " fill="rgb(255,255,255)"/></g></svg>