<?xml version="1.0" encoding="UTF-8" standalone="no"?><!-- Generator: Gravit.io --><svg xmlns="http://www.w3.org/2000/svg" xmlns:xlink="http://www.w3.org/1999/xlink" style="isolation:isolate" viewBox="0 0 451 134" width="451pt" height="134pt"><defs><clipPath id="_clipPath_jW77YzyFIPJcKW7XqsI4jEoaaRMPVnX1"><rect width="451" height="134"/></clipPath></defs><g clip-path="url(#_clipPath_jW77YzyFIPJcKW7XqsI4jEoaaRMPVnX1)"><g><path d=" M 65.503 79.705 C 65.503 82.408 64.96 84.908 63.808 87.138 C 62.655 89.435 61.095 91.328 58.993 92.949 C 56.959 94.572 54.518 95.788 51.67 96.666 C 48.822 97.545 45.771 98.017 42.38 98.017 C 38.379 98.017 34.786 97.477 31.598 96.396 C 28.411 95.315 25.224 93.49 22.037 90.99 L 27.326 82.476 C 29.835 84.57 32.14 86.125 34.175 87.138 C 36.209 88.084 38.311 88.625 40.414 88.625 C 43.058 88.625 45.161 87.949 46.72 86.598 C 48.279 85.246 49.093 83.421 49.093 81.123 C 49.093 80.177 48.957 79.232 48.686 78.353 C 48.415 77.474 47.872 76.596 47.059 75.718 C 46.313 74.839 45.228 73.826 43.871 72.811 C 42.515 71.73 40.82 70.447 38.65 68.892 C 37.023 67.743 35.396 66.595 33.903 65.379 C 32.344 64.162 30.92 62.878 29.7 61.459 C 28.411 60.039 27.394 58.553 26.648 56.797 C 25.902 55.107 25.495 53.147 25.495 50.917 C 25.495 48.417 26.038 46.051 27.055 44.025 C 28.139 41.929 29.564 40.173 31.395 38.685 C 33.225 37.199 35.396 36.051 37.972 35.239 C 40.549 34.428 43.329 34.023 46.381 34.023 C 49.567 34.023 52.619 34.428 55.602 35.307 C 58.586 36.186 61.367 37.402 63.876 39.023 L 59.061 46.727 C 55.807 44.43 52.348 43.28 48.754 43.28 C 46.516 43.28 44.753 43.822 43.329 44.971 C 41.905 46.119 41.159 47.538 41.159 49.228 C 41.159 50.849 41.77 52.337 43.058 53.62 C 44.346 54.904 46.516 56.797 49.567 59.094 C 52.687 61.392 55.263 63.351 57.298 65.109 C 59.332 66.798 60.959 68.419 62.181 69.974 C 63.401 71.46 64.214 73.014 64.621 74.569 C 65.299 76.123 65.503 77.813 65.503 79.705" fill="rgb(255,255,255)"/><path d=" M 119.75 65.311 C 119.75 58.621 118.394 53.35 115.682 49.498 C 112.97 45.646 109.24 43.686 104.562 43.686 C 99.612 43.686 95.746 45.714 92.83 49.836 C 89.915 53.958 88.491 59.499 88.491 66.527 C 88.491 73.352 89.915 78.759 92.762 82.678 C 95.611 86.598 99.476 88.557 104.426 88.557 C 107.409 88.557 109.851 87.814 111.749 86.327 C 113.715 84.84 115.276 82.881 116.428 80.583 C 117.649 78.286 118.462 75.718 118.937 73.014 C 119.479 70.244 119.75 67.676 119.75 65.311 M 136.907 64.702 C 136.907 69.501 136.16 73.961 134.669 77.948 C 133.177 82.003 131.142 85.516 128.498 88.489 C 125.854 91.531 122.734 93.828 119.14 95.518 C 115.547 97.207 111.614 98.017 107.477 98.017 C 105.579 98.017 103.815 97.882 102.188 97.545 C 100.561 97.207 99.001 96.666 97.509 95.923 C 96.017 95.18 94.594 94.165 93.169 92.949 C 91.745 91.733 90.254 90.246 88.694 88.422 L 88.694 127.143 L 72.895 127.143 L 72.895 35.442 L 88.626 35.442 L 88.694 44.362 C 91.542 40.781 94.661 38.145 98.051 36.456 C 101.442 34.766 105.308 33.955 109.715 33.955 C 113.715 33.955 117.377 34.698 120.7 36.186 C 124.023 37.672 126.871 39.767 129.312 42.47 C 131.753 45.173 133.584 48.35 134.872 52.133 C 136.228 55.985 136.907 60.107 136.907 64.702" fill="rgb(255,255,255)"/><rect x="143.891" y="6.857" width="16.207" height="89.674" transform="matrix(1,0,0,1,0,0)" fill="rgb(255,255,255)"/><path d=" M 212.989 96.599 L 212.921 88.422 C 209.802 91.868 206.615 94.301 203.36 95.856 C 200.105 97.342 196.24 98.085 191.9 98.085 C 187.086 98.085 183.017 97.139 179.695 95.247 C 176.372 93.355 173.998 90.517 172.506 86.733 C 172.1 85.854 171.761 84.908 171.557 83.894 C 171.354 82.881 171.15 81.799 171.015 80.515 C 170.879 79.232 170.744 77.813 170.744 76.19 C 170.676 74.569 170.676 72.541 170.676 70.177 L 170.676 35.442 L 186.882 35.442 L 186.882 70.379 C 186.882 73.488 187.018 75.853 187.289 77.474 C 187.56 79.097 188.103 80.583 188.849 81.868 C 190.748 85.313 194.07 87.003 198.817 87.003 C 204.919 87.003 209.124 84.502 211.361 79.434 C 211.904 78.151 212.379 76.663 212.582 75.109 C 212.854 73.556 212.921 71.258 212.921 68.284 L 212.921 35.375 L 229.128 35.375 L 229.128 96.599 L 212.989 96.599 L 212.989 96.599 Z " fill="rgb(255,255,255)"/><path d=" M 282.765 96.531 L 282.765 61.594 C 282.765 58.486 282.63 56.12 282.359 54.499 C 282.087 52.877 281.544 51.39 280.798 50.106 C 278.9 46.66 275.577 44.971 270.83 44.971 C 267.779 44.971 265.202 45.579 263.033 46.862 C 260.863 48.147 259.235 49.971 258.15 52.404 C 257.54 53.823 257.201 55.242 256.998 56.864 C 256.794 58.418 256.659 60.648 256.659 63.486 L 256.659 96.464 L 240.316 96.464 L 240.316 35.375 L 256.659 35.375 L 256.659 43.551 C 259.777 40.105 262.965 37.672 266.22 36.118 C 269.474 34.631 273.34 33.82 277.68 33.82 C 282.494 33.82 286.562 34.833 289.885 36.794 C 293.208 38.821 295.581 41.591 297.073 45.308 C 297.412 46.187 297.683 47.132 297.954 48.079 C 298.225 49.025 298.43 50.106 298.565 51.322 C 298.701 52.539 298.836 53.958 298.904 55.647 C 298.972 57.337 298.972 59.364 298.972 61.729 L 298.972 96.396 L 282.765 96.396 L 282.765 96.531 L 282.765 96.531 Z " fill="rgb(255,255,255)"/><path d=" M 350.778 97.815 L 326.435 64.027 L 326.435 96.531 L 310.093 96.531 L 310.093 6.857 L 326.435 6.857 L 326.435 59.567 L 328.13 59.567 L 349.829 34.496 L 362.102 39.767 L 341.217 62 L 365.9 92.544 L 350.778 97.815 L 350.778 97.815 Z " fill="rgb(255,255,255)"/><path d=" M 379.869 94.91 L 379.869 84.165 L 417.91 65.446 L 379.869 47.065 L 379.869 36.051 L 428.963 60.58 L 428.963 70.582 L 379.869 94.91 L 379.869 94.91 Z " fill="rgb(255,255,255)"/><path d=" M 384.683 20.237 C 387.667 20.237 390.108 22.671 390.108 25.711 C 390.108 28.82 387.734 31.253 384.683 31.253 C 381.699 31.253 379.259 28.82 379.259 25.711 C 379.191 22.671 381.632 20.237 384.683 20.237 Z  M 384.616 21.116 C 382.174 21.116 380.208 23.211 380.208 25.778 C 380.208 28.414 382.174 30.441 384.616 30.441 C 387.056 30.441 389.022 28.414 389.022 25.778 C 389.09 23.143 387.124 21.116 384.616 21.116 Z  M 383.598 28.887 L 382.649 28.887 L 382.649 22.738 C 383.191 22.671 383.666 22.603 384.411 22.603 C 385.361 22.603 385.972 22.806 386.311 23.076 C 386.65 23.346 386.853 23.752 386.853 24.36 C 386.853 25.17 386.311 25.643 385.633 25.846 L 385.633 25.913 C 386.175 25.981 386.514 26.522 386.65 27.401 C 386.785 28.347 386.921 28.752 387.056 28.887 L 386.039 28.887 C 385.904 28.684 385.768 28.144 385.633 27.333 C 385.497 26.522 385.09 26.251 384.343 26.251 L 383.666 26.251 L 383.666 28.887 L 383.598 28.887 Z  M 383.598 25.508 L 384.276 25.508 C 385.09 25.508 385.768 25.238 385.768 24.427 C 385.768 23.887 385.361 23.346 384.276 23.346 C 383.937 23.346 383.733 23.346 383.598 23.414 L 383.598 25.508 Z " fill="rgb(255,255,255)"/></g></g></svg>